<svg xmlns="http://www.w3.org/2000/svg" version="1.0" width="400.000000pt" height="400.000000pt" viewBox="0 0 400.000000 400.000000" preserveAspectRatio="xMidYMid meet">

<g transform="translate(0.000000,400.000000) scale(0.100000,-0.100000)" fill="#2d6cdf" stroke="none">
<path d="M3779 3743 c-31 -81 -58 -114 -174 -213 -103 -87 -347 -227 -445 -255 -14 -4 -29 -11 -35 -15 -10 -7 -195 -71 -300 -103 -52 -16 -187 -53 -340 -92 -432 -112 -650 -178 -795 -242 -83 -37 -424 -205 -430 -212 -3 -3 -25 -17 -50 -30 -25 -13 -52 -29 -60 -36 -8 -7 -20 -14 -26 -16 -30 -11 -257 -179 -349 -259 -159 -138 -334 -353 -418 -515 -40 -78 -87 -185 -87 -199 0 -7 -3 -16 -8 -20 -4 -4 -7 -11 -8 -14 0 -4 -7 -32 -16 -62 -42 -143 -53 -232 -53 -425 0 -115 6 -216 13 -255 63 -315 89 -400 122 -400 32 0 40 38 40 193 1 256 47 428 163 606 57 87 234 268 357 364 47 37 90 70 95 74 6 5 64 49 130 98 281 210 428 352 512 495 15 25 35 53 45 64 10 11 18 23 18 27 0 12 33 20 40 9 9 -14 -7 -113 -26 -170 -20 -55 -76 -172 -106 -222 -65 -106 -102 -164 -108 -168 -8 -7 -110 -160 -110 -166 0 -2 -11 -21 -25 -42 -37 -57 -75 -171 -75 -227 0 -50 26 -133 57 -183 88 -142 267 -168 458 -66 127 67 262 201 323 319 11 22 30 49 42 60 18 16 23 17 30 5 16 -25 11 -79 -20 -235 -74 -375 -159 -560 -349 -759 -83 -86 -202 -176 -267 -201 -111 -42 -154 -75 -141 -109 16 -42 319 0 512 71 607 224 1225 938 1475 1704 34 102 37 131 16 148 -19 16 -45 2 -116 -62 -64 -59 -215 -160 -280 -188 -25 -11 -54 -24 -65 -29 -42 -19 -159 -40 -225 -40 -99 0 -171 29 -236 96 -65 67 -89 133 -89 254 0 87 14 141 59 220 64 114 232 278 439 430 27 19 60 44 75 56 15 11 56 40 92 65 36 24 70 49 77 54 6 6 35 26 63 45 258 176 448 334 527 439 88 116 109 163 119 267 5 49 3 63 -10 77 -25 25 -45 21 -57 -10z" fill="#2d6cdf"/>
</g>
</svg>