<svg xmlns="http://www.w3.org/2000/svg" version="1.0" width="690.000000pt" height="830.000000pt" viewBox="0 0 690.000000 830.000000" preserveAspectRatio="xMidYMid meet">

<g transform="translate(0.000000,830.000000) scale(0.100000,-0.100000)" fill="#2d6cdf" stroke="none">
<path d="M54 8218 c373 -817 1185 -2033 2455 -3673 123 -159 230 -297 237 -306 12 -13 -8 -43 -148 -225 -1044 -1355 -1780 -2439 -2280 -3354 -96 -176 -252 -482 -282 -554 l-16 -38 48 38 c742 599 1874 1821 3012 3252 96 121 179 221 184 221 4 1 18 -11 30 -26 64 -84 546 -669 705 -858 640 -760 1100 -1272 1586 -1764 374 -378 635 -619 859 -793 65 -51 77 -57 71 -37 -17 59 -240 492 -375 727 -486 851 -1289 2015 -2199 3187 -102 131 -167 223 -162 230 390 494 808 1050 1136 1510 458 642 758 1010 1071 1315 338 328 577 467 790 458 46 -1 84 -2 84 -1 0 0 -37 15 -82 31 -118 42 -217 56 -356 49 -521 -26 -1181 -463 -1916 -1267 -170 -186 -619 -715 -988 -1163 -135 -164 -249 -299 -253 -298 -4 0 -94 107 -202 238 -1127 1376 -2186 2496 -2910 3076 -67 53 -124 97 -127 97 -2 0 10 -33 28 -72z" fill="#2d6cdf"/>
<path d="M3193 8198 c7 -4 -3 -7 -23 -6 -31 1 -100 -25 -100 -38 0 -2 11 -9 25 -14 14 -5 30 -22 36 -37 12 -31 3 -54 -42 -103 -25 -27 -36 -65 -30 -103 1 -4 -8 -25 -19 -47 -31 -61 -28 -70 28 -70 27 0 71 7 98 15 65 20 64 20 64 -19 0 -30 -3 -34 -32 -39 -18 -3 -62 -4 -97 -2 -66 4 -72 8 -105 68 -38 70 -73 118 -89 123 -19 6 -95 -40 -104 -63 -6 -16 13 -49 69 -119 28 -34 44 -62 39 -67 -6 -6 -44 13 -93 46 -76 50 -250 143 -340 180 l-37 16 31 -57 c17 -31 35 -61 40 -66 11 -14 10 -28 -2 -21 -5 3 -10 -1 -10 -10 0 -9 4 -14 9 -11 10 7 175 -153 167 -161 -3 -4 -25 9 -49 27 -36 29 -39 30 -17 6 13 -15 39 -36 58 -48 18 -11 40 -34 49 -51 l16 -32 -39 29 c-72 53 -125 111 -155 166 -31 59 -29 31 2 -32 21 -42 23 -52 9 -43 -19 12 -10 -18 20 -67 17 -26 30 -57 30 -68 0 -33 108 -134 165 -154 28 -10 80 -29 117 -43 49 -19 79 -24 111 -21 33 4 49 1 66 -13 l23 -19 -35 -62 c-61 -108 -58 -105 -103 -78 -21 13 -78 52 -125 87 -106 77 -140 82 -187 28 -56 -63 -54 -143 3 -198 38 -37 57 -78 49 -104 -3 -10 10 -1 30 21 19 21 38 51 41 66 l6 28 60 -41 59 -41 -25 -26 c-14 -14 -25 -31 -25 -37 0 -6 -12 -20 -27 -31 l-27 -20 27 -49 c25 -46 26 -63 5 -63 -4 0 -8 10 -8 21 0 14 -31 54 -79 104 -44 46 -87 97 -95 114 -9 17 -21 31 -25 31 -19 0 -30 -65 -22 -130 l8 -65 3 50 c1 28 5 63 9 80 l6 29 37 -49 c20 -28 61 -74 91 -103 53 -50 55 -54 45 -83 -10 -28 -12 -29 -28 -14 -10 9 -42 50 -71 91 -62 86 -73 81 -59 -29 11 -92 37 -168 81 -240 28 -47 34 -65 26 -76 -9 -11 -15 -9 -30 10 -26 33 -72 125 -88 177 -8 30 -15 39 -21 30 -5 -8 -6 7 -2 36 5 34 3 47 -4 42 -8 -4 -12 17 -15 66 -2 40 -3 26 -2 -32 3 -122 25 -202 82 -297 38 -65 54 -74 84 -47 16 14 22 12 76 -30 38 -29 104 -64 183 -97 168 -68 198 -92 251 -192 l25 -49 19 48 c28 73 95 134 190 173 143 59 208 91 251 126 49 40 51 41 77 18 18 -17 20 -17 43 12 13 17 22 36 19 43 -3 7 0 10 5 7 13 -8 56 89 75 169 8 33 14 102 14 151 -1 62 -4 81 -9 60 -6 -22 -7 -14 -6 32 1 80 -16 102 -48 58 -11 -16 -58 -69 -104 -116 -59 -61 -81 -91 -76 -102 4 -12 1 -17 -10 -17 -22 0 -20 10 11 66 20 35 23 49 14 52 -27 9 -100 104 -84 109 6 2 33 20 58 40 26 19 48 33 49 31 1 -1 8 -17 15 -34 7 -18 25 -43 39 -57 l27 -26 2 31 c2 20 15 45 37 67 62 65 70 105 37 178 -22 48 -69 78 -108 68 -13 -3 -63 -35 -110 -71 -47 -36 -101 -73 -119 -82 -31 -14 -35 -14 -53 2 -10 9 -33 44 -51 78 -30 55 -31 61 -16 76 11 11 35 17 75 18 37 0 75 9 103 22 24 12 51 22 60 22 8 0 42 14 76 31 65 32 157 122 148 145 -3 8 10 37 29 66 39 58 42 68 20 68 -11 0 -6 18 20 72 35 73 44 104 25 93 -17 -10 -11 4 25 67 20 33 34 62 33 64 -11 11 -303 -140 -391 -202 -44 -32 -67 -41 -67 -28 0 9 63 94 70 94 3 0 16 17 28 38 l22 39 -23 20 c-12 11 -34 28 -49 37 -35 22 -61 9 -88 -43 l-19 -39 35 -27 c19 -15 38 -25 40 -22 3 3 -8 13 -25 23 -35 20 -38 39 -15 72 20 29 29 28 76 -9 38 -30 38 -32 19 -45 -11 -8 -24 -13 -28 -12 -7 3 -13 -5 -13 -17 0 -3 9 -1 20 5 22 12 27 1 9 -17 -6 -6 -18 -9 -27 -6 -10 4 -13 2 -8 -5 15 -24 -78 26 -96 53 -5 6 -8 4 -8 -5 0 -9 -10 -30 -22 -48 -22 -31 -26 -33 -97 -37 -94 -5 -111 4 -111 55 0 22 3 40 7 40 4 0 21 -14 39 -31 21 -20 45 -32 71 -36 37 -5 42 -3 61 29 31 50 57 158 44 179 -6 9 -8 27 -5 40 4 20 3 21 -7 9 -10 -12 -11 -11 -6 9 7 32 -14 70 -63 114 -27 24 -46 34 -57 30 -11 -4 -15 -2 -11 4 5 7 -1 9 -15 6 -19 -4 -20 -3 -8 6 11 8 7 10 -20 5 -21 -3 -30 -2 -23 3 8 5 -14 9 -57 9 -38 0 -64 -4 -57 -8z m42 -26 c-6 -4 -11 -20 -12 -35 -1 -27 -9 -45 -17 -36 -2 2 -6 21 -9 42 -5 35 -4 37 21 37 15 0 22 -4 17 -8z m106 -3 c51 -17 96 -55 123 -102 25 -45 40 -123 25 -133 -5 -3 -9 -1 -9 4 0 6 -8 8 -19 5 -10 -3 -22 0 -25 6 -5 7 3 11 18 11 14 0 26 5 26 10 0 6 -13 10 -30 10 -37 0 -40 14 -4 16 31 2 41 11 27 25 -8 8 -17 7 -32 -2 -16 -11 -23 -11 -33 -1 -9 9 -8 12 9 12 26 0 49 25 33 35 -7 4 -17 2 -23 -4 -6 -6 -22 -11 -36 -11 -25 0 -25 0 7 20 34 21 42 40 17 40 -8 0 -15 -5 -15 -10 0 -11 -42 -31 -49 -24 -3 3 5 11 17 20 25 17 29 44 7 44 -8 0 -15 -7 -15 -15 0 -8 -9 -19 -19 -25 -31 -16 -34 -12 -12 16 25 32 26 44 6 44 -8 0 -15 -6 -15 -13 0 -8 -9 -22 -20 -32 -11 -10 -20 -13 -20 -7 0 6 5 14 10 17 16 10 12 45 -5 45 -9 0 -15 -9 -15 -24 0 -13 -8 -30 -17 -37 -15 -12 -16 -12 -10 4 4 10 7 30 7 43 0 20 5 24 29 24 15 0 43 -5 62 -11z m-212 -20 c17 -19 19 -19 18 -3 -1 10 5 20 13 21 11 3 16 -7 18 -37 1 -22 -2 -40 -8 -40 -5 0 -11 8 -11 18 -1 15 -2 15 -6 -2 -5 -18 -5 -18 -16 2 -7 11 -18 29 -25 41 -16 27 -8 27 17 0z m357 -71 c22 -42 17 -47 -7 -8 -12 19 -33 49 -48 65 l-26 30 33 -30 c19 -16 40 -42 48 -57z m-196 2 c-11 -7 -6 -10 20 -11 29 0 31 -2 15 -9 -18 -8 -17 -9 8 -9 16 -1 26 -5 22 -11 -3 -5 1 -10 10 -10 9 0 13 -4 10 -10 -3 -5 0 -10 7 -10 9 0 9 -3 -2 -10 -12 -8 -12 -10 5 -11 17 -1 16 -2 -5 -9 -25 -8 -25 -8 5 -10 26 -1 27 -3 10 -10 -18 -8 -18 -9 5 -10 l25 -2 -25 -8 -25 -8 25 -2 c23 -1 23 -2 5 -10 l-20 -9 20 -1 c17 -2 16 -3 -5 -10 l-25 -8 25 -2 c23 -1 23 -2 5 -10 -17 -7 -17 -9 -2 -9 12 -1 17 -9 17 -31 0 -26 -4 -30 -26 -30 -14 0 -23 -4 -19 -10 3 -6 16 -8 28 -6 12 1 16 1 8 -1 -12 -4 -12 -6 0 -14 10 -6 11 -9 1 -9 -7 0 -29 16 -50 36 -20 20 -31 33 -24 29 15 -8 15 -9 -3 40 -8 22 -14 32 -15 23 0 -26 -33 -40 -55 -24 -12 9 -15 19 -10 35 6 18 13 22 35 19 16 -2 27 -1 24 4 -7 11 -52 10 -59 -2 -3 -5 -16 -11 -28 -11 -17 -1 -18 -2 -4 -6 9 -2 15 -9 12 -14 -7 -10 -124 -13 -149 -3 -19 7 -21 57 -3 76 6 7 24 29 39 49 15 20 42 43 60 52 36 18 135 24 108 7z m200 -179 c0 -30 -32 -111 -41 -105 -5 3 -9 18 -9 34 0 23 3 28 17 23 12 -5 15 -2 10 10 -3 9 -2 17 3 17 6 0 10 7 10 15 0 8 -9 15 -20 15 -11 0 -20 4 -20 9 0 4 11 6 25 3 15 -2 25 -11 25 -21z m190 -22 l25 -21 -33 19 c-19 10 -39 24 -45 32 -10 12 -9 12 8 3 11 -6 31 -21 45 -33z m-820 2 c-19 -16 -37 -27 -40 -25 -6 6 52 53 65 53 6 0 -6 -13 -25 -28z m85 -12 c15 -29 15 -32 -2 -52 -16 -20 -16 -20 0 -8 9 8 20 11 23 8 6 -5 -58 -57 -71 -57 -4 0 0 10 11 22 l19 21 -27 -17 c-27 -18 -46 -8 -32 17 5 7 0 6 -11 -3 -10 -8 -16 -10 -12 -4 4 7 0 14 -8 18 -24 9 -17 23 28 55 53 38 63 38 82 0z m221 11 c41 0 63 -4 59 -10 -3 -5 0 -10 7 -10 8 0 6 -5 -5 -11 -9 -6 -15 -14 -12 -20 8 -11 16 -10 -87 -15 -95 -5 -98 -3 -72 47 10 20 20 29 30 25 9 -3 45 -6 80 -6z m-566 -87 c11 4 48 -38 55 -63 8 -24 7 -24 -16 -7 -56 40 -60 35 -11 -13 58 -56 63 -74 10 -42 -40 25 -148 168 -148 196 0 3 23 -12 52 -34 28 -21 54 -38 58 -37z m1403 25 c-30 -55 -131 -168 -151 -168 -21 0 -13 17 26 51 53 46 77 82 27 42 -21 -18 -40 -31 -42 -29 -9 8 10 56 22 56 7 0 16 7 19 16 3 8 10 12 16 9 5 -3 10 -1 10 4 0 6 7 11 15 11 8 0 15 5 15 10 0 6 6 10 13 10 7 0 18 9 25 20 27 44 31 17 5 -32z m-1352 -14 c147 -75 229 -136 224 -165 -2 -12 -7 -24 -10 -27 -2 -3 0 -11 6 -19 28 -33 -4 -6 -86 75 -51 49 -127 110 -175 140 -46 28 -81 52 -76 52 4 0 57 -25 117 -56z m1249 4 c-51 -31 -120 -86 -172 -138 -47 -47 -86 -79 -86 -70 0 8 -3 25 -5 37 -4 17 3 29 31 51 75 60 273 170 307 172 5 0 -28 -23 -75 -52z m-620 -88 c0 -113 -1 -120 -20 -120 -19 0 -20 7 -20 110 0 93 3 110 18 119 9 6 18 11 20 11 1 0 2 -54 2 -120z m-123 84 c-3 -3 -12 -4 -19 -1 -8 3 -5 6 6 6 11 1 17 -2 13 -5z m-139 -73 c-2 -8 -21 -20 -42 -28 -35 -12 -41 -11 -58 3 -26 25 -23 38 20 68 l37 27 23 -28 c12 -16 21 -34 20 -42z m80 62 c-10 -2 -28 -2 -40 0 -13 2 -5 4 17 4 22 1 32 -1 23 -4z m517 -41 c18 -13 18 -14 1 -8 -15 5 -17 4 -8 -7 9 -10 8 -18 -2 -32 -12 -17 -15 -17 -64 -1 l-51 17 26 40 c28 43 27 43 98 -9z m-925 -18 c0 5 16 -8 35 -29 36 -38 41 -60 8 -34 -10 8 -1 -5 20 -29 20 -23 37 -48 37 -54 0 -20 -101 84 -116 119 -18 42 -18 64 1 39 8 -11 15 -16 15 -12z m1154 -16 c-14 -39 -97 -138 -116 -138 -11 0 9 39 36 69 11 13 15 21 9 17 -26 -14 -12 6 33 49 25 25 47 45 49 45 2 0 -3 -19 -11 -42z m156 30 c-1 -48 -120 -189 -192 -229 -30 -16 -21 8 15 40 108 99 105 96 69 67 -36 -28 -58 -34 -45 -13 11 19 136 144 146 146 4 0 7 -5 7 -11z m-890 -38 c-6 -11 -14 -20 -18 -21 -4 0 -14 -2 -24 -4 -9 -2 -18 5 -21 15 -5 19 8 25 56 29 15 1 16 -2 7 -19z m356 7 c2 -2 -1 -16 -5 -33 -5 -16 -10 -22 -10 -13 -1 9 -10 19 -21 22 -17 4 -20 0 -20 -30 0 -20 -4 -32 -10 -28 -6 4 -10 -6 -10 -23 0 -16 -7 -49 -16 -73 l-15 -44 32 -27 c18 -15 46 -29 63 -31 28 -3 27 -4 -9 -7 l-40 -3 35 -7 35 -7 -40 -3 -40 -3 40 -7 c37 -7 38 -8 16 -15 -23 -8 -24 -9 -5 -16 16 -6 14 -8 -11 -9 -30 -2 -30 -2 -5 -10 25 -8 25 -8 -5 -10 -26 -1 -27 -3 -10 -10 16 -7 12 -9 -20 -10 -39 -2 -39 -3 -10 -10 25 -6 20 -8 -27 -9 -33 0 -58 3 -58 9 0 6 -6 10 -14 10 -18 0 -15 53 4 62 12 5 11 7 -5 8 l-20 1 20 9 c14 6 16 9 4 9 -10 1 -16 13 -17 41 -2 32 1 40 15 41 15 1 15 2 -2 7 l-20 5 20 8 c16 6 16 8 3 8 -26 1 -10 38 23 52 53 21 75 81 49 130 -14 25 14 27 29 2 9 -16 10 -15 11 6 0 21 3 23 32 17 17 -3 33 -8 34 -9z m-306 -16 c-19 -37 -11 -72 24 -107 19 -19 41 -34 50 -34 9 0 16 -5 16 -11 0 -5 3 -8 8 -6 4 3 6 -48 4 -113 l-3 -118 -31 -6 c-17 -3 -55 -6 -85 -6 l-54 0 -38 80 c-38 81 -38 81 -24 133 8 29 13 80 11 114 -2 34 0 59 4 57 4 -3 8 -15 9 -27 1 -20 2 -20 9 3 5 15 6 0 3 -40 -3 -36 -9 -80 -15 -98 -5 -18 -8 -34 -6 -36 55 -37 57 -37 87 -15 l28 21 -18 60 c-19 59 -25 148 -12 161 3 4 15 7 25 7 15 0 17 -3 8 -19z m33 -9 c-31 -54 5 -102 78 -102 31 0 79 38 79 63 0 7 -7 22 -15 33 -21 28 -18 40 5 19 31 -28 26 -78 -11 -109 -79 -66 -209 17 -155 99 23 34 39 31 19 -3z m-193 -21 c0 -21 -40 -37 -51 -20 -3 6 -9 -23 -12 -64 -5 -69 -22 -126 -33 -114 -3 3 -7 36 -8 73 -2 46 0 62 5 49 7 -15 8 -11 4 15 -6 42 1 54 40 68 44 15 55 14 55 -7z m105 -32 c-6 -40 -4 -50 5 -44 10 6 11 1 6 -19 -4 -17 -3 -25 3 -22 5 4 12 -8 16 -25 6 -24 2 -36 -14 -52 -20 -20 -21 -20 -41 -2 -17 15 -20 26 -15 50 4 16 9 54 12 83 3 28 9 52 14 52 5 0 9 7 9 15 0 8 3 15 6 15 3 0 3 -23 -1 -51z m386 -4 c5 4 9 -5 9 -19 0 -23 4 -26 36 -26 24 0 34 -4 31 -12 -2 -7 -16 -13 -31 -13 -27 1 -28 0 -22 -45 5 -45 5 -45 -9 -15 l-14 30 -1 -32 c0 -21 -5 -33 -14 -33 -9 0 -12 9 -9 28 3 25 3 25 -6 5 -15 -34 -43 -44 -69 -25 -20 15 -21 20 -10 54 6 21 15 35 20 32 5 -3 7 6 4 20 -3 14 0 28 5 31 5 4 9 15 9 26 0 12 5 19 13 17 7 -3 14 -31 18 -69 l6 -64 1 60 c1 33 6 71 10 85 7 24 7 23 10 -8 2 -18 8 -30 13 -27z m75 45 c8 0 14 -7 14 -15 0 -10 -10 -15 -30 -15 -24 0 -30 4 -30 21 0 15 4 19 16 15 9 -3 22 -6 30 -6z m-539 -92 c-5 -54 -24 -114 -32 -106 -3 2 0 20 5 39 6 18 10 53 10 76 0 26 5 43 11 43 8 0 10 -17 6 -52z m541 36 c-2 -8 -6 -15 -10 -15 -5 1 -17 1 -28 1 -11 0 -20 7 -20 15 0 10 10 15 31 15 22 0 30 -4 27 -16z m-813 -39 c62 -44 96 -85 58 -70 -44 17 -44 14 -2 -9 26 -14 49 -32 52 -41 8 -20 5 -19 -53 10 -27 14 -60 39 -73 57 -29 39 -60 98 -52 98 4 0 35 -20 70 -45z m115 -45 c0 -22 -20 -8 -50 34 -16 25 -30 48 -30 53 1 12 80 -74 80 -87z m130 80 c0 -5 -11 -10 -25 -10 -14 0 -25 5 -25 10 0 6 11 10 25 10 14 0 25 -4 25 -10z m830 2 c0 -4 -15 -32 -32 -62 -26 -43 -44 -60 -88 -82 -30 -15 -56 -25 -59 -23 -8 8 30 43 60 55 16 7 28 15 25 17 -2 3 -14 -1 -26 -7 -42 -23 -16 12 46 62 59 47 74 55 74 40z m-228 -29 c-3 -16 -7 -22 -10 -15 -4 13 4 42 11 42 2 0 2 -12 -1 -27z m103 -6 c-17 -27 -65 -63 -65 -50 0 12 70 86 76 80 3 -3 -2 -17 -11 -30z m-710 -8 c0 -8 -10 -15 -22 -17 -25 -4 -33 22 -10 31 18 8 32 2 32 -14z m953 0 c-7 -12 -18 -30 -24 -40 -23 -41 -144 -123 -171 -117 -14 3 -8 11 25 35 24 17 42 34 40 38 -3 6 122 103 135 104 4 1 2 -9 -5 -20z m-1308 -35 c68 -45 86 -62 55 -50 -28 11 -15 -2 30 -28 25 -15 45 -31 45 -36 0 -40 -150 60 -189 125 -11 19 -18 35 -16 35 3 0 37 -21 75 -46z m970 12 c0 -3 -4 -8 -10 -11 -5 -3 -10 -1 -10 4 0 6 5 11 10 11 6 0 10 -2 10 -4z m-625 -43 c-9 -27 -20 -39 -35 -41 -19 -3 -21 0 -15 15 4 10 8 27 10 38 3 26 2 25 29 25 23 0 23 -1 11 -37z m585 22 c0 -9 -9 -15 -25 -15 -16 0 -25 6 -25 15 0 9 9 15 25 15 16 0 25 -6 25 -15z m45 -14 c-3 -6 -11 -8 -17 -5 -6 4 -5 9 3 15 16 10 23 4 14 -10z m-745 -22 c0 -6 -4 -7 -10 -4 -5 3 -10 11 -10 16 0 6 5 7 10 4 6 -3 10 -11 10 -16z m780 -9 c-24 -34 -113 -83 -138 -77 -11 3 -2 11 28 25 40 19 42 20 13 15 -21 -3 -33 -1 -33 6 0 7 21 11 55 11 50 0 56 2 65 25 5 14 14 25 20 25 6 0 2 -14 -10 -30z m-80 5 c0 -8 -9 -15 -20 -15 -11 0 -20 7 -20 15 0 8 9 15 20 15 11 0 20 -7 20 -15z m-782 -115 c2 -6 -4 -7 -15 -4 -10 3 -3 -3 15 -15 17 -11 32 -26 32 -32 0 -8 -4 -8 -15 1 -8 7 -15 9 -15 4 0 -4 -5 -3 -12 4 -7 7 -20 12 -30 12 -10 0 -18 5 -18 10 0 6 -5 10 -11 10 -13 0 -99 89 -99 102 0 11 164 -78 168 -92z m972 91 c0 -16 -133 -111 -155 -111 -16 0 20 32 57 51 21 11 38 22 38 25 0 3 -5 2 -10 -1 -6 -4 -24 -10 -41 -15 -55 -16 -27 12 36 35 71 27 75 28 75 16z m140 1 c0 -15 -93 -101 -124 -116 -50 -23 -76 -28 -76 -17 0 6 18 18 40 27 23 9 39 19 36 21 -2 3 -14 -1 -26 -7 -18 -9 -21 -9 -18 1 2 7 33 28 69 46 35 19 68 39 74 44 11 11 25 12 25 1z m-1065 -26 c33 -13 61 -29 63 -35 2 -6 -17 -2 -43 9 -68 29 -68 24 -1 -13 33 -18 62 -39 64 -46 6 -19 -86 33 -126 70 -51 48 -43 50 43 15z m101 5 c5 -5 26 -14 47 -21 20 -6 37 -16 37 -22 0 -9 -8 -9 -75 8 -15 4 -14 1 5 -10 14 -9 37 -15 53 -16 15 0 27 -4 27 -10 0 -13 -12 -13 -45 0 -17 7 -24 7 -20 0 10 -16 -11 -12 -25 5 -6 7 -13 21 -14 28 -1 8 -8 22 -15 31 -11 13 -11 16 1 16 8 0 18 -4 24 -9z m64 -1 c0 -6 -11 -8 -27 -4 -40 10 -41 14 -5 14 18 0 32 -5 32 -10z m473 3 c-7 -2 -21 -2 -30 0 -10 3 -4 5 12 5 17 0 24 -2 18 -5z m114 -50 c-9 -9 -35 -18 -58 -19 -47 -3 -46 1 7 20 56 21 73 21 51 -1z m-704 -48 c63 -28 83 -44 55 -46 -7 0 3 -7 22 -15 l35 -14 -50 6 c-50 6 -89 24 -113 53 -21 26 -35 54 -25 50 5 -2 39 -17 76 -34z m827 31 c0 -30 -90 -102 -116 -92 -7 3 -14 1 -14 -3 0 -5 -11 -8 -24 -7 -32 1 -24 13 17 22 27 6 29 8 13 14 -24 8 -16 14 59 47 50 22 65 27 65 19z m-677 -67 c26 -8 35 -14 24 -16 -9 -3 -15 -9 -12 -14 4 -5 -2 -9 -12 -9 -18 0 -103 77 -103 93 0 5 14 -3 30 -17 17 -14 50 -31 73 -37z m498 41 c-21 -18 -61 -28 -61 -15 0 7 60 34 75 34 6 0 -1 -9 -14 -19z m37 -11 c-26 -34 -86 -75 -96 -65 -3 4 0 12 8 17 12 8 10 10 -7 6 -13 -3 -23 -2 -23 3 0 4 15 11 33 14 18 3 49 17 67 31 43 32 45 31 18 -6z m-545 4 c9 -3 17 -9 17 -14 0 -12 -6 -11 -40 6 -32 17 -41 32 -12 20 9 -4 25 -10 35 -12z m265 -90 c-1 -37 -1 -37 -5 -5 -3 24 -9 32 -25 32 -17 0 -20 -5 -16 -30 3 -16 1 -30 -4 -30 -4 0 -8 16 -8 35 0 32 2 35 30 35 28 0 30 -2 28 -37z m-68 7 c0 -18 -7 -20 -70 -20 -63 0 -70 2 -70 20 0 18 7 20 70 20 63 0 70 -2 70 -20z m180 10 l-35 -7 33 -2 c61 -2 32 -21 -33 -21 -58 0 -65 2 -65 20 0 18 6 20 68 19 55 -1 61 -3 32 -9z m-133 -32 c-3 -7 -5 -2 -5 12 0 14 2 19 5 13 2 -7 2 -19 0 -25z m128 -18 c29 -7 29 -8 5 -10 -24 -2 -24 -3 5 -10 l30 -8 -30 -2 -30 -3 33 -6 c44 -8 41 -24 -5 -34 -51 -12 -237 -14 -295 -4 l-47 8 17 35 17 36 103 -6 c67 -5 102 -3 102 4 0 11 50 11 95 0z m-579 -66 c99 -74 218 -136 309 -159 176 -45 385 13 577 160 98 74 129 81 172 38 38 -38 43 -69 15 -99 -23 -25 -14 -34 11 -11 8 6 7 3 -3 -9 -9 -11 -15 -23 -12 -25 3 -3 -11 -21 -30 -39 -34 -33 -50 -65 -21 -40 13 10 13 8 3 -14 -9 -19 -13 -22 -16 -9 -2 13 -5 14 -13 2 -6 -10 -7 -7 -3 10 5 16 4 21 -4 17 -7 -5 -8 -1 -4 10 4 11 3 15 -4 11 -6 -4 -13 -1 -16 5 -6 17 11 48 25 48 6 0 3 -9 -7 -20 -10 -11 -16 -20 -13 -20 2 0 15 12 29 27 13 14 18 23 12 19 -21 -12 -15 -1 14 25 15 13 21 16 14 7 -11 -15 -11 -18 0 -18 7 0 -3 -17 -22 -37 -21 -23 -24 -30 -9 -18 l25 20 -19 -23 c-27 -31 -15 -37 14 -7 15 16 19 25 10 25 -9 0 -8 6 5 20 10 11 14 20 10 20 -5 0 2 11 15 25 22 23 22 25 4 25 -23 0 -46 -15 -139 -93 -79 -66 -218 -138 -315 -164 -87 -23 -262 -23 -350 0 -90 23 -216 89 -286 148 -104 87 -138 110 -159 108 -11 -1 -23 -1 -28 0 -11 2 20 57 45 81 37 34 68 25 164 -46z m663 -38 c0 -8 -2 -8 -5 0 -3 7 -13 11 -22 9 -9 -1 -11 0 -4 2 7 3 9 10 5 16 -4 7 1 6 10 -2 9 -7 17 -19 16 -25z m-429 4 c-6 -11 -13 -20 -16 -20 -2 0 0 9 6 20 6 11 13 20 16 20 2 0 0 -9 -6 -20z m44 2 c2 -4 0 -14 -6 -22 -8 -12 -9 -11 -4 4 5 14 2 17 -9 12 -9 -3 -13 -2 -10 4 7 12 22 13 29 2z m56 -22 l8 25 1 -27 c1 -25 -2 -28 -31 -27 -28 0 -30 2 -13 9 11 5 14 9 8 9 -15 1 -13 22 2 33 6 4 12 -4 14 -20 l4 -27 7 25z m190 -2 c0 -5 -6 -8 -14 -8 -8 0 -13 8 -11 18 2 9 4 19 4 22 2 7 21 -23 21 -32z m70 -21 c-11 -19 -10 -19 22 -12 49 11 62 11 68 0 3 -5 -16 -17 -43 -26 -26 -8 -45 -18 -42 -21 9 -9 -105 -28 -164 -28 -31 0 -74 3 -96 7 -31 5 -35 8 -20 14 14 5 8 7 -20 7 -22 0 -57 7 -78 16 -30 13 -35 19 -25 29 10 11 23 11 71 0 33 -8 99 -15 146 -16 78 -2 86 0 84 16 -1 14 4 17 18 14 14 -4 19 0 20 16 1 20 2 20 6 3 3 -12 -2 -25 -13 -33 -16 -12 -15 -13 15 -13 29 0 33 3 28 21 -4 15 -2 19 9 15 11 -4 13 1 8 22 -5 24 -4 25 7 8 9 -15 9 -24 -1 -39z m-204 26 c-2 -10 -11 -19 -22 -20 -18 -3 -18 -2 1 6 11 5 14 10 8 10 -18 1 -16 21 1 21 8 0 13 -8 12 -17z m84 2 c0 -8 -5 -15 -11 -15 -5 0 -7 -4 -4 -10 3 -5 -2 -10 -13 -10 -26 0 -24 30 2 31 21 0 21 1 1 9 -19 8 -19 9 3 9 13 1 22 -5 22 -14z m100 5 c0 -5 -5 -10 -11 -10 -5 0 -7 5 -4 10 3 6 8 10 11 10 2 0 4 -4 4 -10z m-171 -44 c-9 -8 -10 -7 -5 7 3 10 7 24 7 30 1 7 3 4 6 -7 3 -10 -1 -23 -8 -30z m246 35 c3 -5 0 -13 -6 -17 -7 -4 -9 -3 -5 4 3 5 0 13 -6 15 -9 4 -10 6 -1 6 6 1 14 -3 18 -8z m-803 -16 c10 10 87 -66 85 -85 -1 -18 -5 -16 -34 12 -18 17 -30 35 -27 39 3 5 -2 6 -11 3 -14 -6 -10 -13 20 -44 24 -25 34 -42 29 -54 -6 -15 -7 -15 -20 1 -16 21 -18 10 -4 -18 6 -10 8 -19 6 -19 -3 0 -13 14 -22 31 -8 17 -11 28 -6 25 24 -15 18 25 -8 49 -16 16 -27 32 -24 36 2 4 -1 11 -7 15 -8 4 -9 3 -5 -4 4 -7 3 -12 -3 -12 -5 0 -13 5 -16 10 -3 6 -1 10 5 10 6 0 8 5 4 11 -5 8 -1 8 13 0 11 -6 22 -8 25 -6z m535 -21 c-3 -3 -12 -4 -19 -1 -8 3 -5 6 6 6 11 1 17 -2 13 -5z m70 -10 c-3 -3 -12 -4 -19 -1 -8 3 -5 6 6 6 11 1 17 -2 13 -5z m659 -170 c3 -25 3 -92 0 -148 -4 -55 -8 -113 -9 -128 -1 -14 -6 -24 -11 -20 -5 3 -6 -2 -3 -12 5 -11 3 -15 -5 -10 -7 5 -9 0 -6 -14 4 -14 2 -20 -5 -15 -7 4 -8 0 -4 -11 5 -11 3 -15 -5 -10 -8 5 -9 2 -5 -10 4 -10 3 -15 -3 -11 -5 3 -16 -7 -24 -23 -18 -35 -42 -56 -50 -44 -3 6 10 36 29 68 20 33 44 86 54 119 20 66 37 208 26 225 -11 18 -36 -10 -30 -31 9 -27 -45 -131 -113 -218 -102 -133 -191 -188 -347 -215 -41 -7 -64 -15 -55 -19 8 -4 0 -5 -19 -2 -18 3 -41 5 -50 5 -26 0 -24 40 2 41 20 2 19 2 -3 7 l-25 5 25 8 c24 7 24 7 3 8 -16 1 -23 7 -23 21 0 14 7 20 23 21 l22 0 -22 9 c-13 5 -23 14 -23 20 0 5 10 11 23 11 20 2 20 2 -3 7 l-25 5 25 8 c25 7 24 7 -5 9 l-30 2 30 8 30 8 -30 2 c-26 1 -27 3 -10 10 l20 9 -20 1 -20 1 20 9 20 9 -20 1 c-17 2 -16 3 5 10 21 7 22 8 5 9 -17 1 -20 8 -20 41 0 28 4 40 15 41 10 0 8 3 -5 9 -17 7 -16 9 10 10 l30 2 -30 8 c-21 5 -24 8 -10 10 l20 1 -20 9 c-13 6 -15 9 -5 9 13 1 13 2 0 11 -12 8 -12 10 5 11 11 0 14 3 8 6 -7 2 -13 12 -13 20 0 11 6 14 23 9 12 -3 38 -6 57 -7 29 0 31 -2 15 -9 l-20 -9 20 0 c17 -1 17 -3 5 -11 -12 -8 -12 -10 5 -11 l20 0 -20 -9 c-15 -6 -16 -9 -4 -9 17 -1 22 -31 5 -31 -6 0 -4 -5 4 -10 8 -5 12 -10 7 -10 -4 0 -1 -13 8 -30 19 -37 19 -38 -7 -43 -21 -4 -21 -4 3 -6 17 -1 30 -9 37 -26 6 -14 16 -25 22 -25 6 0 8 -4 5 -10 -3 -5 2 -10 12 -11 16 0 16 -1 -2 -10 -15 -7 -11 -7 14 -3 25 5 32 3 26 -6 -6 -9 1 -10 26 -5 25 4 30 3 19 -4 -28 -19 0 -11 53 15 59 30 170 133 229 212 57 77 41 74 -21 -3 -29 -36 -56 -63 -60 -60 -5 2 -12 16 -15 29 -5 20 5 35 65 93 39 37 78 80 87 96 9 15 20 27 24 27 4 0 10 -21 14 -46z m-1339 14 c-3 -8 -6 -5 -6 6 -1 11 2 17 5 13 3 -3 4 -12 1 -19z m380 -12 c44 -18 95 -37 114 -41 33 -8 33 -9 9 -16 -14 -4 -19 -7 -12 -8 6 -1 12 -6 12 -11 0 -7 -6 -7 -19 0 -25 13 -34 13 -26 0 9 -14 -8 -12 -24 3 -11 10 -12 9 -5 -3 12 -22 14 -40 3 -40 -6 0 -7 -4 -4 -10 3 -5 11 -10 16 -10 6 0 7 5 4 10 -3 6 0 10 7 10 11 0 10 2 0 9 -11 6 -10 10 4 15 9 4 22 2 28 -4 8 -8 6 -9 -6 -5 -13 5 -16 2 -13 -14 2 -12 -1 -21 -6 -21 -6 0 -7 -5 -3 -12 9 -15 -4 -7 -89 55 -55 40 -65 52 -56 63 11 14 9 16 -21 18 -8 1 -13 6 -11 11 11 30 13 35 16 35 2 0 39 -15 82 -34z m669 23 c3 -6 2 -14 -3 -18 -6 -3 -9 -14 -8 -23 2 -9 -4 -23 -13 -30 -16 -12 -16 -11 -2 6 13 18 13 19 0 11 -8 -5 -29 -19 -47 -33 -18 -13 -36 -21 -40 -19 -5 3 -20 -4 -33 -14 -20 -17 -21 -18 -4 -10 12 6 24 8 27 5 3 -3 23 7 43 22 21 16 35 24 32 19 -4 -6 -28 -26 -54 -45 -26 -18 -44 -28 -39 -21 5 9 3 12 -6 9 -8 -3 -13 -11 -11 -17 1 -7 -2 -10 -8 -6 -6 3 -8 11 -5 16 4 5 0 9 -7 9 -7 1 1 12 17 26 18 15 23 22 11 18 -14 -6 -17 -4 -11 5 6 10 3 11 -13 2 -30 -16 -40 -13 -17 5 19 16 19 16 -5 9 -34 -10 -34 -9 -11 -46 12 -19 21 -41 21 -49 0 -8 9 -21 20 -28 11 -7 20 -20 20 -30 0 -39 27 -44 107 -18 18 6 22 3 25 -20 2 -15 10 -30 18 -32 13 -4 13 -3 2 11 -11 13 -7 20 31 46 36 24 46 28 51 16 3 -8 1 -17 -4 -20 -5 -3 -7 -12 -4 -19 3 -9 -3 -17 -15 -21 -12 -3 -19 -11 -16 -16 3 -5 -15 -22 -41 -39 -91 -58 -181 -28 -218 73 -17 45 -40 177 -32 184 8 8 190 75 208 76 9 1 14 5 12 9 -3 4 -1 8 5 8 5 0 13 -5 17 -11z m-701 -120 c94 -67 97 -70 87 -86 -7 -12 -157 90 -157 106 0 5 -4 13 -9 18 -5 5 -6 3 -2 -4 8 -15 -10 -18 -19 -3 -6 9 1 30 10 30 3 0 43 -27 90 -61z m739 55 c9 -3 13 -10 10 -15 -8 -14 -26 -11 -18 4 4 7 3 9 -2 4 -5 -5 -9 -12 -9 -17 0 -8 -53 -51 -125 -100 -27 -19 -32 -20 -20 -5 14 17 13 18 -5 11 -26 -10 -20 -4 72 65 91 68 78 60 97 53z m-435 -30 c3 -2 5 -104 5 -227 l1 -222 -70 3 c-197 9 -360 112 -470 300 -26 45 -50 82 -52 82 -2 0 1 -9 7 -21 7 -11 9 -27 6 -35 -4 -10 -2 -12 6 -8 8 5 9 2 5 -10 -4 -10 -3 -15 3 -11 5 3 16 -7 24 -22 8 -15 28 -45 45 -67 17 -21 29 -42 26 -46 -7 -11 44 -55 63 -55 9 0 17 -7 17 -15 0 -9 8 -14 19 -12 10 2 15 -1 12 -7 -4 -5 -1 -13 5 -17 8 -5 9 -3 4 6 -5 8 -3 11 6 8 8 -3 13 -11 11 -17 -1 -7 2 -10 7 -7 5 3 24 0 41 -8 22 -9 28 -15 19 -20 -8 -3 -3 -3 10 0 15 4 21 2 17 -4 -4 -6 2 -8 16 -4 15 3 19 2 14 -7 -6 -9 0 -10 20 -5 18 5 25 3 20 -4 -4 -7 5 -9 29 -5 20 3 35 1 35 -4 0 -6 23 -8 55 -5 l55 4 0 -73 c0 -41 3 -92 6 -114 l6 -40 -42 48 c-42 47 -119 93 -223 132 -26 10 -45 20 -42 23 8 8 -106 71 -119 66 -12 -4 -109 99 -142 151 -18 30 -18 30 1 15 17 -13 17 -12 -2 13 -28 36 -52 108 -57 172 -3 28 -1 42 3 32 4 -10 10 -18 14 -17 4 0 41 -35 83 -79 91 -96 149 -135 234 -155 71 -17 96 -19 65 -6 -16 7 -12 9 25 16 35 6 40 9 25 15 -18 7 -17 8 5 9 23 1 23 2 5 10 -18 8 -18 9 -2 9 10 1 15 6 12 11 -3 6 -2 10 3 10 5 0 9 7 10 15 1 8 3 22 4 30 1 8 6 15 12 15 6 0 4 5 -4 10 -8 5 -10 10 -5 10 6 0 10 24 9 55 0 34 3 55 10 55 6 0 4 5 -4 10 -12 8 -10 10 10 11 l25 1 -25 9 c-17 5 -7 6 30 3 30 -4 57 -8 59 -10z m119 9 c-10 -2 -26 -2 -35 0 -10 3 -2 5 17 5 19 0 27 -2 18 -5z m-537 -30 c13 -16 12 -17 -3 -4 -10 7 -18 15 -18 17 0 8 8 3 21 -13z m290 -100 c-15 -100 -60 -153 -129 -153 -15 0 -52 12 -82 26 l-55 26 28 10 c21 7 27 16 25 31 -3 24 1 24 80 11 38 -6 42 -5 42 15 0 11 9 30 20 41 11 11 20 22 20 25 0 3 12 24 27 48 l28 42 3 -28 c2 -15 -1 -58 -7 -94z m354 107 c-3 -5 -11 -10 -16 -10 -6 0 -7 5 -4 10 3 6 11 10 16 10 6 0 7 -4 4 -10z m-604 -37 c13 -16 12 -17 -3 -4 -10 7 -18 15 -18 17 0 8 8 3 21 -13z m807 -26 c-36 -32 -98 -72 -98 -64 0 6 122 97 129 97 3 -1 -10 -15 -31 -33z m-752 -44 c36 -32 37 -33 8 -17 -17 9 -49 32 -70 51 -36 32 -37 33 -8 17 17 -9 49 -32 70 -51z m-15 40 c13 -16 12 -17 -3 -4 -10 7 -18 15 -18 17 0 8 8 3 21 -13z m980 -15 c-4 -13 -6 -28 -4 -35 5 -15 -15 -55 -25 -49 -4 2 -18 -12 -30 -32 -17 -27 -18 -31 -4 -15 11 12 23 19 27 15 5 -4 5 -1 1 6 -4 6 -2 12 3 12 17 0 13 -14 -14 -54 -14 -21 -23 -41 -20 -46 3 -4 -3 -14 -13 -21 -15 -13 -16 -12 -3 4 19 25 8 21 -15 -5 -10 -12 -13 -18 -6 -14 30 18 8 -15 -33 -49 -95 -77 -259 -154 -335 -156 -22 0 -23 -1 -5 -8 17 -7 17 -8 -8 -15 -15 -3 -27 -11 -27 -16 0 -6 -21 -9 -47 -8 l-48 1 45 7 45 7 -50 3 -50 3 55 7 55 7 -55 3 -55 3 55 7 55 7 -55 2 c-30 1 -49 5 -42 8 6 2 10 9 6 14 -3 5 19 10 48 11 l53 1 -60 7 -60 7 63 1 c44 1 61 5 56 13 -5 9 4 10 32 5 30 -5 36 -4 24 4 -12 9 -8 10 18 6 22 -4 31 -2 26 5 -4 8 1 9 16 4 16 -5 20 -4 15 5 -5 8 -2 10 11 6 11 -3 26 -1 34 4 8 5 11 10 5 10 -5 0 10 12 35 26 25 14 76 55 114 92 68 65 68 66 27 15 -23 -29 -69 -70 -103 -93 -33 -22 -56 -40 -50 -40 5 0 37 20 69 44 70 51 138 130 127 147 -4 7 -3 9 4 5 13 -8 35 28 24 39 -4 5 -1 4 7 0 11 -6 13 -4 8 7 -8 22 3 30 21 15 13 -11 14 -9 2 13 -13 24 -12 24 5 10 10 -8 16 -10 12 -3 -7 11 8 63 18 63 2 0 1 -10 -4 -22z m-940 -15 c13 -16 12 -17 -3 -4 -10 7 -18 15 -18 17 0 8 8 3 21 -13z m1006 -5 c-3 -8 -6 -5 -6 6 -1 11 2 17 5 13 3 -3 4 -12 1 -19z m-1062 -19 c11 -17 -2 -21 -24 -7 -28 17 -29 43 -2 28 11 -5 23 -15 26 -21z m795 23 c0 -10 -41 -35 -47 -28 -9 8 17 36 33 36 8 0 14 -3 14 -8z m-832 -44 c22 -17 39 -35 36 -40 -9 -14 -61 -9 -74 7 -7 8 -9 15 -6 15 4 0 4 6 -1 13 -10 17 -13 37 -4 37 4 0 26 -14 49 -32z m1089 -10 c-3 -8 -6 -5 -6 6 -1 11 2 17 5 13 3 -3 4 -12 1 -19z m-1328 -63 c0 -5 -4 -3 -9 5 -5 8 -9 22 -9 30 0 16 17 -16 18 -35z m201 -80 c13 -14 21 -25 18 -25 -2 0 -15 11 -28 25 -13 14 -21 25 -18 25 2 0 15 -11 28 -25z m125 -174 c-5 -4 -95 48 -95 54 0 3 22 -7 49 -22 27 -16 48 -30 46 -32z m393 -118 c-10 -2 -26 -2 -35 0 -10 3 -2 5 17 5 19 0 27 -2 18 -5z m-18 -28 c-13 -16 -35 -21 -26 -6 4 5 0 12 -6 14 -7 3 0 6 16 6 24 1 27 -1 16 -14z" fill="#2d6cdf"/>
<path d="M3116 7958 c7 -12 64 -40 73 -36 4 2 -12 12 -35 24 -24 11 -41 17 -38 12z" fill="#2d6cdf"/>
<path d="M3265 7911 c-9 -16 3 -31 26 -31 14 0 19 6 17 17 -4 20 -33 29 -43 14z m35 -11 c0 -5 -7 -10 -16 -10 -8 0 -12 5 -9 10 3 6 10 10 16 10 5 0 9 -4 9 -10z" fill="#2d6cdf"/>
<path d="M2879 7793 c-13 -16 -12 -17 4 -4 16 13 21 21 13 21 -2 0 -10 -8 -17 -17z" fill="#2d6cdf"/>
<path d="M3643 7645 c0 -8 4 -12 9 -9 5 3 6 10 3 15 -9 13 -12 11 -12 -6z" fill="#2d6cdf"/>
<path d="M3081 7526 c-16 -19 -6 -36 20 -36 15 0 20 6 17 22 -4 27 -21 33 -37 14z m23 -17 c-3 -5 -10 -7 -15 -3 -5 3 -7 10 -3 15 3 5 10 7 15 3 5 -3 7 -10 3 -15z" fill="#2d6cdf"/>
<path d="M3432 7605 c0 -16 2 -22 5 -12 2 9 2 23 0 30 -3 6 -5 -1 -5 -18z" fill="#2d6cdf"/>
<path d="M3482 7565 c0 -16 2 -22 5 -12 2 9 2 23 0 30 -3 6 -5 -1 -5 -18z" fill="#2d6cdf"/>
<path d="M3401 7526 c-16 -19 -6 -36 20 -36 15 0 20 6 17 22 -4 27 -21 33 -37 14z m29 -11 c0 -8 -4 -15 -10 -15 -5 0 -10 7 -10 15 0 8 5 15 10 15 6 0 10 -7 10 -15z" fill="#2d6cdf"/>
<path d="M3328 7223 c6 -2 18 -2 25 0 6 3 1 5 -13 5 -14 0 -19 -2 -12 -5z" fill="#2d6cdf"/>
<path d="M3393 7173 c9 -2 23 -2 30 0 6 3 -1 5 -18 5 -16 0 -22 -2 -12 -5z" fill="#2d6cdf"/>
<path d="M2694 7198 c-24 -29 -24 -36 -3 -31 18 5 20 3 14 -16 -7 -24 13 -29 34 -8 10 10 11 7 6 -15 -8 -30 2 -36 24 -15 11 10 13 9 8 -5 -4 -10 -2 -18 4 -18 6 0 7 -6 3 -12 -4 -7 3 -2 16 11 22 23 23 24 5 37 -16 12 -21 11 -37 -3 -10 -9 -18 -11 -18 -5 0 6 5 14 10 17 6 3 10 11 10 16 0 6 -4 7 -10 4 -5 -3 -10 1 -10 9 0 9 -5 16 -11 16 -7 0 -17 7 -23 16 -10 13 -14 13 -22 2z m38 -50 c-7 -7 -12 -8 -12 -2 0 14 12 26 19 19 2 -3 -1 -11 -7 -17z" fill="#2d6cdf"/>
<path d="M3800 7205 c0 -3 7 -18 16 -33 l16 -27 -21 24 c-17 18 -25 21 -33 13 -9 -9 -9 -15 0 -24 7 -7 12 -17 12 -22 0 -6 -7 -3 -14 7 -12 15 -18 16 -35 7 -25 -13 -26 -18 -4 -42 15 -16 15 -18 0 -18 -9 0 -20 7 -25 15 -11 20 -42 9 -42 -14 0 -18 18 -41 32 -41 4 0 8 10 8 23 0 17 2 19 10 7 14 -22 53 16 44 44 -6 17 -4 19 8 9 11 -10 21 -8 48 8 26 16 30 23 19 30 -8 5 -10 9 -6 9 5 0 2 7 -7 15 -15 15 -26 19 -26 10z m-42 -101 c-4 -3 -12 5 -18 18 -12 22 -12 22 6 6 10 -10 15 -20 12 -24z m-55 -11 c-7 -3 -10 -12 -7 -21 5 -15 4 -15 -6 1 -13 20 -4 41 13 30 8 -5 8 -8 0 -10z" fill="#2d6cdf"/>
<path d="M2831 7076 c-14 -26 -8 -46 14 -46 7 0 15 -6 17 -12 3 -7 10 2 16 21 9 25 9 32 -1 28 -6 -2 -11 -9 -10 -14 1 -5 -7 -10 -18 -10 -22 -2 -23 1 -8 29 6 11 9 22 6 24 -2 2 -9 -7 -16 -20z" fill="#2d6cdf"/>
<path d="M3635 7041 c8 -37 0 -39 -26 -8 l-20 22 10 -22 c17 -33 31 -37 52 -14 23 24 24 35 3 27 -8 -3 -12 -2 -9 3 3 5 0 13 -6 17 -8 4 -9 -3 -4 -25z" fill="#2d6cdf"/>
<path d="M2902 7025 c-11 -23 -10 -24 13 -15 25 10 35 -2 14 -16 -8 -4 -7 -9 2 -15 19 -11 29 -2 29 27 0 14 -4 23 -9 20 -5 -3 -11 1 -15 9 -8 22 -21 18 -34 -10z" fill="#2d6cdf"/>
<path d="M3558 7034 c-4 -5 3 -21 13 -34 15 -18 18 -19 11 -5 -5 11 -11 27 -14 35 -2 8 -7 10 -10 4z" fill="#2d6cdf"/>
<path d="M2973 6989 c-14 -35 -10 -37 11 -5 9 14 12 27 8 30 -5 3 -13 -8 -19 -25z" fill="#2d6cdf"/>
<path d="M3525 7010 c-8 -13 13 -50 28 -50 7 0 6 4 -3 10 -8 5 -11 10 -6 10 5 0 3 6 -3 13 -6 8 -8 17 -4 20 3 4 4 7 0 7 -3 0 -9 -4 -12 -10z" fill="#2d6cdf"/>
<path d="M3000 6981 c-13 -25 -13 -34 0 -26 6 3 10 0 11 -7 1 -15 17 21 18 40 1 19 -17 14 -29 -7z" fill="#2d6cdf"/>
<path d="M3474 6989 c-4 -7 1 -18 10 -25 13 -9 14 -13 4 -17 -8 -4 -7 -6 5 -6 9 -1 17 6 17 14 0 8 -5 15 -11 15 -5 0 -8 4 -4 9 3 5 1 12 -4 15 -5 4 -13 1 -17 -5z" fill="#2d6cdf"/>
<path d="M3445 6980 c-7 -11 4 -60 14 -60 4 0 7 9 7 20 0 11 -4 20 -9 20 -5 0 -7 7 -3 15 6 17 0 20 -9 5z" fill="#2d6cdf"/>
<path d="M3041 6973 c-1 -6 -4 -20 -7 -30 -5 -17 -5 -17 6 0 6 10 9 23 6 30 -3 9 -5 9 -5 0z" fill="#2d6cdf"/>
<path d="M3060 6966 c0 -8 -3 -21 -6 -30 -3 -9 -1 -16 6 -16 6 0 8 5 5 10 -3 6 -1 10 5 10 6 0 8 5 4 11 -3 6 0 15 7 20 11 7 10 9 -3 9 -10 0 -18 -6 -18 -14z" fill="#2d6cdf"/>
<path d="M3400 6959 c0 -17 20 -49 30 -49 6 0 10 5 10 11 0 5 -4 8 -9 5 -5 -3 -12 2 -15 11 -4 9 -1 20 6 25 10 6 8 8 -4 8 -10 0 -18 -5 -18 -11z" fill="#2d6cdf"/>
<path d="M3106 6938 c-3 -13 -2 -26 3 -31 4 -4 8 6 9 23 1 36 -3 39 -12 8z" fill="#2d6cdf"/>
<path d="M3138 6930 c-3 -16 -1 -30 4 -30 8 0 12 16 9 34 -1 5 4 13 11 17 10 7 9 9 -3 9 -11 0 -18 -11 -21 -30z" fill="#2d6cdf"/>
<path d="M3330 6930 c0 -16 4 -30 8 -30 4 0 8 14 7 30 0 17 -3 30 -7 30 -5 0 -8 -13 -8 -30z" fill="#2d6cdf"/>
<path d="M3360 6943 c0 -22 20 -55 20 -35 0 7 5 10 10 7 12 -7 13 15 2 30 -12 17 -32 16 -32 -2z" fill="#2d6cdf"/>
<path d="M3175 6941 c-3 -5 -1 -12 5 -16 5 -3 10 -11 10 -16 0 -6 -5 -7 -12 -3 -7 4 -8 3 -4 -5 4 -6 12 -9 17 -6 13 9 11 35 -3 35 -9 0 -8 4 2 10 9 6 10 10 3 10 -6 0 -14 -4 -18 -9z" fill="#2d6cdf"/>
<path d="M3230 6936 c0 -8 5 -18 11 -22 8 -4 7 -9 -2 -15 -10 -6 -10 -9 -2 -9 18 0 26 19 14 34 -6 7 -8 16 -4 19 3 4 1 7 -5 7 -7 0 -12 -6 -12 -14z" fill="#2d6cdf"/>
<path d="M3270 6920 c0 -20 5 -30 15 -30 8 0 15 5 15 11 0 5 -5 7 -11 3 -8 -5 -10 1 -7 20 3 14 1 26 -3 26 -5 0 -9 -13 -9 -30z" fill="#2d6cdf"/>
<path d="M3312 6920 c0 -19 2 -27 5 -17 2 9 2 25 0 35 -3 9 -5 1 -5 -18z" fill="#2d6cdf"/>
<path d="M3418 7053 c7 -3 16 -2 19 1 4 3 -2 6 -13 5 -11 0 -14 -3 -6 -6z" fill="#2d6cdf"/>
<path d="M3118 7043 c6 -2 18 -2 25 0 6 3 1 5 -13 5 -14 0 -19 -2 -12 -5z" fill="#2d6cdf"/>
<path d="M2709 7036 c14 -14 26 -24 29 -22 7 8 -8 25 -31 37 -21 11 -21 10 2 -15z" fill="#2d6cdf"/>
<path d="M2700 6991 c0 -5 5 -13 10 -16 6 -3 10 -2 10 4 0 5 -4 13 -10 16 -5 3 -10 2 -10 -4z" fill="#2d6cdf"/>
<path d="M3398 6593 c7 -3 16 -2 19 1 4 3 -2 6 -13 5 -11 0 -14 -3 -6 -6z" fill="#2d6cdf"/>
<path d="M3398 6553 c7 -3 16 -2 19 1 4 3 -2 6 -13 5 -11 0 -14 -3 -6 -6z" fill="#2d6cdf"/>
<path d="M3468 6523 c7 -3 16 -2 19 1 4 3 -2 6 -13 5 -11 0 -14 -3 -6 -6z" fill="#2d6cdf"/>
<path d="M2925 6836 c17 -14 42 -31 56 -40 22 -13 26 -13 26 -1 0 8 -4 12 -9 9 -5 -3 -26 8 -47 25 -21 17 -43 31 -47 31 -5 0 5 -11 21 -24z" fill="#2d6cdf"/>
<path d="M2975 6746 c17 -14 35 -26 40 -26 11 1 -20 27 -50 41 -11 6 -6 -1 10 -15z" fill="#2d6cdf"/>
<path d="M3534 6754 c-18 -14 -18 -15 4 -4 12 6 22 13 22 15 0 8 -5 6 -26 -11z" fill="#2d6cdf"/>
<path d="M3068 6533 c6 -2 18 -2 25 0 6 3 1 5 -13 5 -14 0 -19 -2 -12 -5z" fill="#2d6cdf"/>
<path d="M3408 6343 c6 -2 18 -2 25 0 6 3 1 5 -13 5 -14 0 -19 -2 -12 -5z" fill="#2d6cdf"/>
<path d="M3308 6313 c6 -2 18 -2 25 0 6 3 1 5 -13 5 -14 0 -19 -2 -12 -5z" fill="#2d6cdf"/>
<path d="M1554 4666 c-226 -105 -557 -654 -590 -981 l-7 -64 -95 -81 c-52 -45 -112 -93 -133 -107 -40 -26 -43 -34 -30 -66 6 -16 11 -15 51 14 25 18 78 61 118 95 40 35 77 64 81 64 5 0 11 -20 14 -45 6 -62 52 -133 101 -159 84 -43 182 -16 276 76 49 48 50 51 34 69 -17 19 -17 19 -32 -2 -24 -35 -129 -106 -166 -113 -84 -16 -126 47 -126 188 l0 84 126 134 c155 163 318 365 385 475 101 167 166 336 153 396 -11 52 -76 62 -160 23z m102 -38 c35 -56 -61 -253 -235 -485 -133 -178 -341 -414 -341 -387 0 28 45 165 84 255 72 169 152 305 261 444 116 148 206 215 231 173z" fill="#2d6cdf"/>
<path d="M1927 4562 c-26 -29 -21 -79 9 -107 32 -29 26 -39 -47 -86 -30 -20 -45 -37 -42 -45 7 -19 17 -18 64 6 48 25 116 91 129 126 14 37 12 76 -6 102 -20 28 -83 31 -107 4z" fill="#2d6cdf"/>
</g>
</svg>