<svg xmlns="http://www.w3.org/2000/svg" version="1.0" width="512.000000pt" height="512.000000pt" viewBox="0 0 512.000000 512.000000" preserveAspectRatio="xMidYMid meet">

<g transform="translate(0.000000,512.000000) scale(0.100000,-0.100000)" fill="#2d6cdf" stroke="none">
<path d="M1865 4711 c-379 -219 -872 -504 -1095 -633 l-405 -234 -5 -1278 c-3 -846 -2 -1280 5 -1286 6 -4 273 -160 595 -346 322 -185 814 -469 1093 -631 280 -161 511 -293 514 -293 3 0 502 287 1109 637 l1104 638 0 1276 0 1277 -602 348 c-332 191 -828 477 -1102 636 -274 158 -504 288 -510 288 -6 0 -321 -180 -701 -399z m1667 -1226 c1 -201 2 -380 2 -397 l1 -33 -222 -3 -223 -2 0 175 0 175 -421 0 -421 0 93 -101 c677 -734 650 -702 630 -724 -23 -25 -671 -784 -690 -808 -13 -16 12 -17 413 -17 l426 0 0 200 0 200 225 0 225 0 0 -435 0 -435 -1000 0 -1000 0 0 188 0 188 411 463 410 464 -19 21 c-11 11 -195 214 -411 449 l-391 429 0 184 0 184 980 0 980 0 2 -365z" fill="#2d6cdf"/>
</g>
</svg>