<svg id="SvgjsSvg1001" width="288" height="288" xmlns="http://www.w3.org/2000/svg" version="1.1" xmlns:xlink="http://www.w3.org/1999/xlink" xmlns:svgjs="http://svgjs.com/svgjs"><defs id="SvgjsDefs1002"></defs><g id="SvgjsG1008" transform="matrix(1,0,0,1,0,0)"><svg xmlns="http://www.w3.org/2000/svg" viewBox="0 0 832 420" width="288" height="288"><g fill="#f3f169" fill-rule="evenodd" class="colorfff svgShape"><polyline points="226.461 318.038 183.391 237.421 140.323 318.038 66.7 318.038 148.42 183.678 71.853 55.942 145.108 55.942 183.391 129.932 221.675 55.942 294.93 55.942 218.363 183.678 300.084 318.038 226.461 318.038" fill="#2d6cdf" class="color000 svgShape"></polyline><polyline points="448.463 113.366 448.463 318.038 384.042 318.038 384.042 113.366 319.622 113.366 319.622 55.942 512.882 55.942 512.882 113.366 448.463 113.366" fill="#2d6cdf" class="color000 svgShape"></polyline><polyline points="692.182 318.038 649.113 237.421 606.044 318.038 532.421 318.038 614.142 183.678 537.575 55.942 610.83 55.942 649.113 129.932 687.397 55.942 760.651 55.942 684.084 183.678 765.805 318.038 692.182 318.038" fill="#2d6cdf" class="color000 svgShape"></polyline><polyline points="278.415 418.914 278.415 397.887 272.187 408.74 265.28 408.74 259.052 397.887 259.052 418.914 248.261 418.914 248.261 375.009 258.867 375.009 268.733 394.371 278.6 375.009 289.206 375.009 289.206 418.914 278.415 418.914" fill="#2d6cdf" class="color000 svgShape"></polyline><path d="M324.662 391.659L320.716 403.374 328.363 403.374 324.662 391.659zM333.233 418.914L331.199 412.377 317.694 412.377 315.536 418.914 304.252 418.914 320.223 375.009 328.548 375.009 344.518 418.914 333.233 418.914zM376.645 384.691L370.541 384.691 370.541 393.57 376.645 393.57C379.606 393.57 381.332 391.413 381.332 389.132 381.332 386.848 379.606 384.691 376.645 384.691zM381.948 418.914L374.179 402.573 370.541 402.573 370.541 418.914 359.749 418.914 359.749 375.009 377.138 375.009C386.882 375.009 392.123 381.916 392.123 389.132 392.123 395.111 388.423 398.873 384.97 400.601L394.467 418.914 381.948 418.914z" fill="#2d6cdf" class="color000 svgShape"></path><polyline points="435.228 418.914 425.114 400.908 421.415 405.164 421.415 418.914 410.747 418.914 410.747 375.009 421.415 375.009 421.415 390.549 434.118 375.009 447.313 375.009 432.329 392.769 447.807 418.914 435.228 418.914" fill="#2d6cdf" class="color000 svgShape"></polyline><polyline points="463.038 418.914 463.038 375.009 492.884 375.009 492.884 384.63 473.829 384.63 473.829 391.968 490.108 391.968 490.108 401.587 473.829 401.587 473.829 409.295 492.884 409.295 492.884 418.914 463.038 418.914" fill="#2d6cdf" class="color000 svgShape"></polyline><polyline points="530.314 384.63 530.314 418.914 519.524 418.914 519.524 384.63 508.733 384.63 508.733 375.009 541.106 375.009 541.106 384.63 530.314 384.63" fill="#2d6cdf" class="color000 svgShape"></polyline><path d="M568.238,419.284 C561.517,419.284 556.03,418.05 551.589,413.488 L558.496,406.581 C560.777,408.864 564.786,409.665 568.3,409.665 C572.554,409.665 574.59,408.246 574.59,405.719 C574.59,404.67 574.343,403.808 573.727,403.128 C573.172,402.573 572.246,402.142 570.828,401.957 L565.526,401.217 C561.64,400.662 558.681,399.367 556.708,397.332 C554.672,395.236 553.686,392.275 553.686,388.514 C553.686,380.499 559.729,374.639 569.718,374.639 C576.008,374.639 580.757,376.119 584.518,379.881 L577.735,386.663 C574.96,383.89 571.321,384.075 569.41,384.075 C565.649,384.075 564.106,386.232 564.106,388.144 C564.106,388.699 564.291,389.5 564.971,390.179 C565.526,390.734 566.45,391.289 567.992,391.474 L573.295,392.214 C577.241,392.769 580.077,394.001 581.928,395.851 C584.271,398.133 585.196,401.402 585.196,405.471 C585.196,414.413 577.488,419.284 568.238,419.284" fill="#2d6cdf" class="color000 svgShape"></path><polyline points="831.85 374.671 777.865 374.671 777.865 342.202 799.376 342.202 799.376 33.295 777.865 33.295 777.865 .826 831.85 .826 831.85 374.671" fill="#2d6cdf" class="color000 svgShape"></polyline><polyline points="54.685 374.671 .704 374.671 .704 .826 54.685 .826 54.685 33.295 33.174 33.295 33.174 342.202 54.685 342.202 54.685 374.671" fill="#2d6cdf" class="color000 svgShape"></polyline></g></svg></g></svg>