<svg id="SvgjsSvg1046" width="288" height="288" xmlns="http://www.w3.org/2000/svg" version="1.1" xmlns:xlink="http://www.w3.org/1999/xlink" xmlns:svgjs="http://svgjs.com/svgjs"><defs id="SvgjsDefs1047"></defs><g id="SvgjsG1048"><svg xmlns="http://www.w3.org/2000/svg" width="288" height="288" version="1.0" viewBox="0 0 820 821"><g transform="matrix(.1 0 0 -.1 0 821)" fill="#008b8b" class="color000 svgShape"><path d="M3843 7770c-254-66-444-267-497-523-32-152-13-286 61-437 76-156 212-275 385-338 67-25 86-27 218-27 138 1 149 2 226 32 146 55 252 138 333 258 262 393 62 918-395 1035-100 26-233 26-331 0zM5702 7637c-151-57-191-249-75-359 115-110 310-56 353 98 37 130-59 263-194 271-28 1-66-3-84-10zM2275 7630c-173-35-325-151-400-305-44-90-57-150-56-255 0-157 51-280 162-391 292-294 782-185 929 206 28 74 38 224 20 308-30 146-148 306-278 375-113 60-262 85-377 62z" fill="#008b8b" class="color000 svgShape"></path><path d="M4722 7474c-28-20-30-69-3-84 13-6 144-10 359-10 316 0 340 1 355 18 23 26 21 58-5 76-19 14-70 16-353 16-283 0-334-2-353-16zM5503 7162c-20-13-623-1063-623-1086 0-30 18-46 52-46 21 0 33 9 52 38 36 56 583 1006 597 1036 10 22 9 29-6 46-18 20-50 26-72 12zM5945 7146c-14-20-14-29-4-48 23-44 571-993 595-1030 19-30 31-38 54-38 29 0 50 22 50 53 0 17-608 1069-623 1079-24 15-57 8-72-16zM1200 6516c-272-57-503-238-625-491-70-144-80-193-79-390 0-159 2-175 28-255 53-159 119-266 236-380 306-299 784-335 1135-85 348 248 472 719 290 1104-65 137-184 277-304 357-70 47-199 108-276 129-82 23-318 29-405 11zM4370 6461c-5-11-10-26-10-33 0-7 51-98 113-203 99-167 116-190 140-193 35-4 57 13 57 44 0 21-183 347-218 387-21 23-69 22-82-2zM2985 6295c-244-54-437-237-501-475-21-79-23-234-5-310 56-233 241-423 472-486 85-23 243-23 328-1 340 91 548 429 476 772-38 183-178 363-346 443-138 67-289 87-424 57zM4717 5957c-52-16-103-60-128-109-32-62-24-162 16-219 81-115 259-120 347-9 38 48 55 130 39 188-18 64-81 128-144 147-59 17-78 18-130 2zM6686 5960c-54-17-105-61-131-113-54-109-13-232 98-289 32-16 54-19 107-16 78 4 124 29 168 92 24 35 27 49 27 117 0 70-3 81-30 121-17 23-50 53-72 66-47 26-124 36-167 22zM3847 5802c-24-26-21-59 7-77 21-14 64-15 316-13 275 3 292 4 306 22 19 27 18 42-6 66-19 19-33 20-313 20-272 0-295-1-310-18zM5092 5804c-27-19-28-48-2-74 20-20 30-20 670-18 416 2 652 7 658 13 22 23 23 54 3 74-21 21-29 21-664 21-565 0-645-2-665-16zM4538 5483c-8-10-97-161-197-335-187-325-200-356-160-381 44-27 58-10 257 336 105 183 192 342 192 353 0 43-62 61-92 27zM4922 5488c-7-7-12-21-12-32 0-12 141-264 313-561 262-451 318-542 341-550 24-8 31-6 48 15 10 13 17 32 15 41-6 21-604 1057-625 1082-17 20-62 23-80 5zM6544 5492c-19-12-634-1080-634-1100 0-10 9-27 20-37 46-41 48-38 379 533 180 312 311 549 311 563 0 14-5 30-12 37-13 13-47 16-64 4zM6925 5476c-9-14-15-29-12-33 2-4 145-252 318-551 236-409 319-544 335-548 34-9 64 12 64 44 0 17-117 227-314 567-300 517-314 540-344 543-24 2-34-2-47-22zM2260 4745c-209-47-401-218-470-419-33-96-44-205-30-298 37-259 204-457 455-540 100-33 268-33 375 0 199 62 353 210 428 410 33 90 42 266 18 362-28 114-89 222-169 303-130 129-260 187-437 193-68 2-128-1-170-11zM3824 4691c-284-45-501-285-521-574-23-346 262-647 612-647 392 1 681 360 600 744-45 212-220 397-434 460-66 19-189 27-257 17zM641 4594c-115-31-232-119-303-228-105-162-110-375-14-547 107-190 334-297 552-260 278 48 476 318 436 595-30 207-180 381-381 440-68 20-216 20-290 0zM5675 4273c-118-62-158-194-91-307 101-173 377-112 394 88 8 94-37 174-119 217-47 24-141 25-184 2zM7645 4273c-207-108-141-407 90-408 182 0 282 215 162 351-44 51-96 74-164 74-33-1-71-8-88-17zM4632 4118c-7-7-12-24-12-38 0-14 5-31 12-38 9-9 116-12 420-12 392 0 408 1 418 19 14 27 13 47-6 65-13 14-65 16-418 16-299 0-405-3-414-12zM6042 4118c-7-7-12-24-12-38 0-14 5-31 12-38 9-9 177-12 695-12l683 0 12 25c8 19 8 31 0 50l-12 25-683 0c-518 0-686-3-695-12zM5564 3810c-14-5-126-190-329-540-169-293-312-545-318-561-10-25-8-32 11-51 48-48 50-45 385 532 326 561 338 586 292 615-13 8-28 10-41 5zM5937 3812c-26-5-40-48-25-75 49-95 615-1066 629-1081 23-24 66-14 81 19 10 22-20 76-309 576-203 352-326 555-339 559-10 3-27 5-37 2zM7558 3808c-29-23-648-1104-648-1131 0-31 31-51 64-43 16 4 100 141 341 557 176 304 321 561 323 571 4 23-24 58-48 58-9 0-23-6-32-12zM1242 3464c-143-31-301-115-409-217-440-416-330-1144 212-1407 129-63 194-80 332-87 186-10 345 28 496 118 84 50 203 161 263 246 181 252 209 604 71 878-122 243-344 417-599 469-94 19-278 19-366 0zM4156 3398c-9-12-16-27-16-32 0-5 93-168 206-363 219-375 230-388 274-348 11 10 20 26 20 37 0 18-377 675-408 711-21 24-58 21-76-5zM3043 3015c-79-22-120-41-187-89-139-99-216-253-216-431 0-151 47-262 155-371 244-246 637-204 827 90 55 85 78 168 78 280 0 154-50 275-156 383-128 127-331 183-501 138zM6698 2576c-99-27-158-104-158-208 0-194 237-287 368-144 79 86 82 202 6 286-59 65-134 88-216 66zM4700 2565c-140-63-170-248-57-352 177-163 445 41 335 254-36 72-92 107-176 110-45 2-79-2-102-12zM3812 2414c-27-18-29-55-4-77 17-15 55-17 338-17 329 0 349 2 355 40 5 27-11 58-34 64-12 3-159 6-327 6-261 0-309-2-328-16zM5094 2405c-15-23-15-27 0-50l16-25 655 0 655 0 12 25c8 19 8 31 0 50l-12 25-655 0-655 0-16-25zM4558 2108c-8-7-54-80-102-162-94-161-103-193-55-210 15-5 33-7 41-3 19 7 198 310 198 335 0 22-30 52-51 52-9 0-22-6-31-12zM4927 2102c-10-10-17-27-17-38 0-10 133-246 294-524 280-483 294-505 324-508 24-2 34 3 47 22 15 22 15 27 2 53-52 98-580 999-590 1005-20 13-43 9-60-10zM6548 2108c-16-13-562-950-578-993-13-35 14-67 53-63 29 3 41 21 230 348 344 595 377 654 377 667 0 17-36 53-53 53-7 0-20-6-29-12zM3895 1746c-290-82-477-292-515-579-53-397 266-757 670-757 265 0 495 145 610 385 94 194 92 396-6 595-78 157-215 277-386 337-61 22-94 27-198 30-86 2-141-2-175-11zM2191 1624c-129-35-271-146-339-265-40-71-72-193-72-273 1-251 176-476 420-541 71-19 210-19 280 0 277 74 458 353 410 634-35 207-204 393-405 446-74 19-222 19-294-1zM5679 1011c-131-72-158-241-53-344 46-46 83-61 149-61 75-1 136 31 180 92 27 40 30 51 30 121 0 68-3 82-27 117-46 65-90 88-172 91-55 3-79-1-107-16zM4776 854c-19-18-21-55-4-72 9-9 99-12 345-12l333 0 16 25c15 23 15 27 0 50l-16 25-330 0c-285 0-331-2-344-16z" fill="#008b8b" class="color000 svgShape"></path></g></svg></g></svg>