<?xml version="1.0" standalone="no"?>
<!DOCTYPE svg PUBLIC "-//W3C//DTD SVG 20010904//EN"
 "http://www.w3.org/TR/2001/REC-SVG-20010904/DTD/svg10.dtd">
<svg version="1.0" xmlns="http://www.w3.org/2000/svg"
 width="180.000000pt" height="180.000000pt" viewBox="0 0 180.000000 180.000000"
 preserveAspectRatio="xMidYMid meet">
<metadata>
Created by potrace 1.10, written by Peter Selinger 2001-2011
</metadata>
<g transform="translate(0.000000,180.000000) scale(0.100000,-0.100000)"
fill="#008b8b" stroke="none">
<path d="M730 1785 c-140 -28 -263 -84 -378 -172 -161 -123 -274 -298 -324
-500 -30 -123 -30 -303 1 -428 78 -323 327 -573 656 -661 84 -22 268 -30 361
-14 360 58 650 323 734 672 28 116 28 320 0 436 -82 340 -357 600 -708 668
-90 17 -254 17 -342 -1z m350 -171 c200 -46 385 -196 484 -392 208 -413 -35
-929 -489 -1038 -91 -22 -249 -22 -340 0 -390 94 -638 496 -545 884 73 303
323 524 640 565 53 7 177 -2 250 -19z"/>
<path d="M800 924 l0 -636 -32 6 c-52 10 -178 73 -236 118 -66 51 -136 142
-177 233 -33 71 -65 182 -65 224 0 17 -4 22 -16 17 -9 -3 -27 -6 -40 -6 -19 0
-24 -5 -24 -23 0 -52 42 -187 86 -277 100 -202 320 -360 537 -383 l47 -5 0
684 0 684 -40 0 -40 0 0 -636z"/>
<path d="M930 879 l0 -681 53 7 c144 20 288 95 403 209 85 85 134 159 178 268
33 85 33 94 -6 107 -37 13 -41 10 -58 -44 -64 -203 -254 -389 -452 -443 l-38
-10 0 284 0 284 270 0 270 0 0 40 0 40 -270 0 -270 0 0 310 0 310 -40 0 -40 0
0 -681z"/>
</g>
</svg>
