<?xml version="1.0" standalone="no"?>
<!DOCTYPE svg PUBLIC "-//W3C//DTD SVG 20010904//EN"
 "http://www.w3.org/TR/2001/REC-SVG-20010904/DTD/svg10.dtd">
<svg version="1.0" xmlns="http://www.w3.org/2000/svg"
 width="900.000000pt" height="900.000000pt" viewBox="0 0 900.000000 900.000000"
 preserveAspectRatio="xMidYMid meet">
<metadata>
Created by potrace 1.10, written by Peter Selinger 2001-2011
</metadata>
<g transform="translate(0.000000,900.000000) scale(0.100000,-0.100000)"
fill="#008b8b" stroke="none">
<path d="M4250 8931 c-221 -26 -306 -40 -480 -82 -89 -22 -185 -50 -202 -60
-10 -5 -22 -9 -28 -9 -21 0 -199 -74 -320 -133 -421 -205 -784 -512 -1054
-892 -88 -124 -238 -390 -291 -515 -10 -25 -27 -64 -37 -87 -10 -23 -18 -48
-18 -55 0 -8 -4 -18 -8 -23 -10 -11 -64 -175 -82 -245 -32 -127 -42 -172 -55
-250 -18 -102 -32 -222 -43 -390 -9 -129 7 -458 27 -550 6 -25 13 -65 17 -90
7 -50 31 -152 44 -190 5 -14 16 -52 26 -85 16 -54 71 -208 93 -260 22 -53 53
-122 62 -137 5 -10 32 -61 59 -113 252 -480 681 -927 1178 -1229 35 -21 66
-35 69 -32 4 3 -4 21 -17 39 -88 117 -186 309 -225 437 -9 30 -21 66 -25 80
-36 106 -45 190 -45 405 0 264 9 323 85 554 61 182 180 401 296 541 68 81 194
200 277 261 45 32 87 64 94 69 7 6 15 10 18 10 4 0 37 18 73 39 136 80 292
134 507 178 116 23 154 26 355 26 231 1 289 -5 515 -53 157 -33 332 -88 452
-141 23 -11 44 -19 47 -19 5 0 119 -51 176 -78 77 -38 301 -168 390 -228 161
-107 358 -271 516 -428 159 -160 184 -187 281 -307 84 -105 193 -260 266 -379
43 -70 171 -317 202 -390 10 -25 26 -63 36 -85 9 -22 31 -85 49 -140 17 -55
35 -107 40 -116 5 -9 12 -34 15 -55 4 -22 10 -48 15 -59 10 -25 40 -153 50
-219 23 -140 29 -193 40 -336 16 -197 0 -592 -29 -700 -5 -19 -14 -64 -20
-100 -6 -36 -18 -94 -26 -130 -9 -36 -20 -85 -25 -110 -6 -25 -14 -54 -19 -65
-5 -11 -19 -54 -31 -95 -12 -41 -25 -84 -30 -95 -5 -11 -19 -45 -30 -75 -67
-180 -219 -466 -338 -640 -80 -115 -189 -253 -261 -330 -38 -41 -70 -79 -71
-83 -1 -26 367 233 545 382 197 166 375 343 535 531 30 36 61 72 69 80 64 67
297 406 398 580 82 142 243 465 243 489 0 4 10 29 23 57 13 27 34 78 46 114
13 36 27 74 31 85 5 11 18 52 31 90 12 39 26 79 30 90 4 11 12 40 19 65 50
197 60 238 60 256 0 11 3 24 8 28 4 4 12 38 18 74 6 37 21 123 32 192 38 225
47 353 47 690 0 373 -12 514 -71 830 -20 111 -42 208 -66 295 -11 39 -26 93
-33 120 -30 111 -83 272 -105 320 -5 11 -19 45 -30 75 -12 30 -28 71 -36 90
-9 19 -19 44 -24 55 -64 157 -258 513 -369 675 -113 166 -202 289 -236 326 -5
7 -29 34 -51 60 -23 27 -61 72 -84 99 -95 111 -308 322 -430 425 -36 30 -71
61 -78 67 -7 7 -41 34 -75 60 -34 26 -66 51 -72 56 -33 27 -164 119 -250 174
-55 36 -112 74 -127 84 -15 10 -30 19 -34 19 -3 0 -39 20 -79 44 -94 57 -370
191 -505 245 -58 24 -120 49 -138 57 -18 8 -37 14 -43 14 -6 0 -25 6 -42 14
-69 31 -244 82 -489 141 -381 92 -904 133 -1228 96z"/>
<path d="M2150 8282 c0 -4 -17 -16 -37 -27 -20 -11 -41 -24 -47 -30 -6 -5 -38
-28 -71 -50 -127 -83 -357 -263 -480 -374 -65 -59 -313 -307 -345 -346 -207
-245 -259 -313 -387 -505 -183 -273 -394 -692 -477 -945 -9 -27 -20 -59 -25
-70 -13 -29 -31 -83 -47 -142 -8 -29 -21 -79 -30 -110 -45 -165 -61 -236 -90
-393 -53 -293 -67 -465 -66 -815 0 -414 20 -588 122 -1059 5 -28 14 -64 20
-80 5 -17 19 -65 31 -106 20 -74 44 -146 59 -185 4 -11 22 -60 40 -110 18 -49
41 -109 51 -132 11 -23 19 -44 19 -47 0 -14 139 -303 193 -402 51 -93 166
-282 211 -348 60 -86 248 -337 282 -375 33 -39 34 -39 93 -106 190 -214 516
-512 662 -607 14 -9 33 -23 40 -30 8 -7 37 -28 64 -47 28 -19 78 -54 113 -78
64 -44 229 -143 238 -143 2 0 22 -11 45 -25 44 -29 246 -131 324 -165 28 -12
64 -27 80 -35 43 -19 251 -99 310 -120 28 -9 59 -21 70 -25 11 -5 38 -13 60
-19 22 -5 90 -24 150 -41 105 -29 139 -37 320 -75 205 -43 464 -71 730 -81
233 -8 566 26 790 80 162 39 363 101 440 136 478 213 764 424 1095 806 135
155 326 463 410 659 12 28 27 64 34 80 8 17 21 53 31 80 9 28 21 59 25 70 51
128 110 364 130 520 5 39 14 102 20 140 16 105 21 358 10 487 -14 164 -29 288
-39 328 -5 19 -19 78 -31 130 -21 88 -70 248 -90 295 -5 11 -19 45 -30 75 -42
110 -93 217 -167 349 -124 219 -278 425 -452 605 -193 201 -366 348 -571 487
-82 56 -185 119 -195 119 -12 0 3 -28 44 -83 48 -64 149 -258 180 -347 13 -36
27 -74 31 -85 29 -68 70 -327 70 -446 0 -206 -51 -469 -127 -649 -17 -41 -119
-246 -136 -275 -39 -63 -145 -197 -213 -267 -105 -109 -211 -193 -325 -260
-233 -136 -431 -200 -709 -228 -263 -26 -545 -2 -830 72 -362 94 -753 287
-1096 539 -28 20 -57 43 -65 51 -8 7 -48 40 -89 73 -264 211 -575 572 -774
900 -75 124 -217 412 -232 471 -3 13 -10 27 -15 30 -5 3 -9 13 -9 22 0 9 -7
30 -15 46 -8 15 -15 36 -15 45 0 9 -6 28 -14 43 -8 15 -17 42 -21 60 -3 18
-10 42 -15 53 -4 11 -18 63 -29 115 -12 52 -26 113 -31 135 -11 47 -29 168
-40 280 -11 105 -11 498 0 600 14 128 38 284 56 360 9 39 21 96 28 127 6 31
14 60 19 64 4 4 7 16 7 26 0 26 67 223 112 328 10 25 23 54 27 65 4 11 44 93
89 182 132 264 320 532 515 735 21 22 21 28 2 28 -8 0 -15 -3 -15 -8z"/>
</g>
</svg>
