<?xml version="1.0" standalone="no"?>
<!DOCTYPE svg PUBLIC "-//W3C//DTD SVG 20010904//EN"
 "http://www.w3.org/TR/2001/REC-SVG-20010904/DTD/svg10.dtd">
<svg version="1.0" xmlns="http://www.w3.org/2000/svg"
 width="900.000000pt" height="900.000000pt" viewBox="0 0 900.000000 900.000000"
 preserveAspectRatio="xMidYMid meet">
<metadata>
Created by potrace 1.10, written by Peter Selinger 2001-2011
</metadata>
<g transform="translate(0.000000,900.000000) scale(0.100000,-0.100000)"
fill="#008b8b" stroke="none">
<path d="M4160 8909 c-218 -18 -522 -67 -710 -114 -182 -45 -267 -70 -318 -91
-18 -8 -39 -14 -47 -14 -8 0 -29 -6 -47 -14 -18 -8 -89 -35 -158 -62 -197 -74
-423 -183 -575 -274 -33 -20 -67 -39 -75 -43 -8 -4 -27 -15 -42 -25 -15 -9
-57 -36 -95 -60 -485 -305 -967 -780 -1293 -1272 -161 -244 -316 -531 -400
-740 -12 -30 -27 -66 -33 -80 -20 -47 -38 -95 -81 -225 -114 -343 -173 -621
-218 -1025 -17 -149 -17 -628 0 -790 24 -241 75 -538 116 -685 8 -27 22 -79
31 -115 10 -36 22 -78 27 -95 6 -16 14 -43 18 -60 13 -47 96 -278 108 -300 5
-11 20 -45 32 -75 62 -155 178 -384 270 -535 20 -33 39 -65 41 -70 9 -24 206
-307 270 -390 338 -434 762 -811 1224 -1091 274 -166 706 -361 960 -435 17 -4
53 -15 80 -23 184 -53 428 -107 565 -126 30 -4 91 -12 135 -18 165 -23 318
-32 546 -32 221 0 522 19 634 39 28 5 93 17 145 26 146 24 232 44 430 97 54
14 314 99 385 126 270 102 640 292 853 439 35 23 65 43 68 43 9 0 289 214 364
278 193 166 399 372 525 526 22 27 45 54 50 60 61 64 319 428 351 496 4 8 19
33 33 55 14 22 30 49 36 60 111 203 98 178 158 305 42 89 123 282 152 360 45
126 95 280 105 325 5 22 18 74 30 115 28 105 58 257 99 505 6 33 18 180 27
326 17 251 17 279 0 525 -9 142 -21 286 -27 319 -5 33 -17 103 -25 155 -24
144 -62 323 -88 410 -8 25 -22 74 -31 110 -10 36 -29 97 -42 135 -13 39 -34
102 -47 140 -13 39 -47 123 -75 189 -266 617 -622 1117 -1119 1573 -176 161
-412 343 -443 343 -23 -1 -55 -32 -103 -102 -61 -90 -129 -189 -181 -264 -48
-68 -59 -96 -50 -123 3 -11 47 -50 97 -87 265 -197 537 -467 745 -741 85 -111
213 -296 213 -307 0 -3 13 -24 29 -48 111 -167 304 -590 361 -793 5 -16 18
-61 29 -100 45 -155 85 -329 105 -460 34 -216 46 -376 46 -606 0 -425 -51
-761 -182 -1179 -31 -102 -38 -122 -88 -245 -18 -44 -36 -89 -40 -100 -10 -25
-147 -305 -160 -325 -148 -249 -189 -312 -280 -435 -202 -274 -523 -598 -780
-787 -92 -67 -268 -188 -274 -188 -3 0 -24 -13 -48 -29 -92 -61 -329 -182
-493 -251 -115 -49 -334 -128 -385 -140 -19 -4 -71 -18 -115 -30 -44 -12 -96
-26 -115 -30 -19 -4 -53 -12 -75 -18 -43 -11 -167 -32 -360 -58 -172 -24 -688
-24 -870 0 -175 23 -309 45 -375 62 -30 7 -91 22 -135 33 -70 18 -112 30 -250
71 -73 22 -211 73 -220 81 -5 5 -15 9 -21 9 -36 0 -435 200 -542 271 -24 16
-45 29 -47 29 -7 0 -227 150 -290 198 -135 103 -238 194 -385 342 -218 217
-328 349 -486 585 -237 352 -435 791 -523 1160 -12 50 -28 115 -35 145 -24 96
-44 211 -63 350 -26 193 -26 780 0 955 58 389 148 716 283 1030 59 137 200
411 230 446 8 8 14 19 14 24 0 8 167 259 214 320 178 233 470 535 651 673 33
25 62 49 65 52 5 6 166 121 260 186 129 89 471 270 615 326 22 9 74 29 115 46
114 45 319 109 445 137 39 9 95 22 125 30 228 53 454 75 789 75 347 0 539 -18
786 -75 230 -53 239 -56 409 -111 59 -19 122 -34 140 -32 32 3 44 20 80 113 8
22 31 83 51 135 38 101 43 114 68 171 23 54 30 104 18 127 -8 15 -53 34 -168
70 -87 27 -185 57 -218 65 -238 61 -288 72 -400 91 -134 22 -315 44 -455 56
-143 12 -495 11 -650 -1z"/>
<path d="M4120 7955 c-317 -46 -324 -47 -495 -92 -89 -23 -331 -100 -405 -130
-127 -50 -372 -167 -445 -212 -22 -14 -56 -34 -75 -44 -98 -54 -351 -237 -483
-350 -172 -148 -381 -370 -515 -549 -59 -79 -215 -313 -251 -378 -55 -99 -188
-376 -202 -420 -4 -14 -17 -50 -29 -80 -28 -73 -68 -193 -85 -255 -61 -231
-68 -261 -112 -535 -25 -153 -25 -719 0 -870 10 -58 23 -136 29 -175 14 -88
25 -114 55 -121 22 -6 105 11 213 42 25 7 104 27 175 44 72 18 138 40 149 49
19 17 19 12 -3 181 -45 339 -40 641 16 925 38 198 78 343 133 485 12 30 24 64
27 75 9 35 150 320 193 391 175 288 358 507 595 713 137 119 342 269 415 304
8 4 30 16 49 28 80 48 305 156 385 185 309 110 529 161 786 183 230 20 588 6
745 -28 28 -7 82 -18 120 -27 123 -27 199 -46 255 -65 475 -158 829 -374 1180
-721 104 -103 237 -257 299 -347 130 -189 173 -261 248 -416 73 -150 72 -146
148 -355 21 -59 42 -132 60 -205 9 -38 23 -95 30 -125 43 -171 50 -257 49
-590 0 -262 -3 -343 -17 -420 -21 -117 -46 -230 -62 -290 -7 -25 -20 -74 -30
-110 -9 -36 -23 -82 -31 -102 -34 -93 -43 -116 -64 -168 -21 -52 -130 -278
-150 -310 -5 -8 -27 -44 -47 -79 -116 -196 -257 -375 -428 -546 -142 -142
-172 -169 -285 -256 -224 -174 -479 -316 -745 -416 -22 -8 -53 -21 -70 -27
-26 -11 -169 -52 -320 -91 -144 -38 -427 -69 -625 -69 -203 0 -475 30 -635 70
-265 67 -421 122 -635 227 -300 146 -517 303 -770 557 -170 170 -291 319 -413
510 -55 85 -69 87 -190 22 -50 -27 -145 -77 -211 -111 -65 -34 -129 -69 -142
-77 -53 -35 -43 -64 85 -254 246 -365 544 -667 933 -946 135 -96 480 -282 643
-346 22 -9 64 -26 94 -38 54 -22 162 -58 261 -87 30 -9 66 -20 80 -24 77 -25
333 -73 500 -93 243 -29 636 -27 840 4 179 27 372 65 445 86 122 36 154 46
215 65 208 66 561 229 709 327 34 23 64 42 66 42 2 0 44 28 92 61 451 315 779
665 1046 1116 82 139 247 476 247 505 0 6 6 24 14 41 59 128 137 425 180 682
43 256 56 678 28 905 -23 183 -61 398 -87 490 -7 25 -21 74 -30 110 -19 70
-71 222 -105 310 -12 30 -25 67 -30 82 -5 15 -20 49 -33 75 -14 26 -41 82 -61
123 -266 549 -677 1015 -1214 1377 -51 35 -95 63 -98 63 -2 0 -22 11 -44 25
-71 45 -235 131 -340 178 -319 144 -631 232 -1005 284 -154 21 -686 26 -815 8z"/>
<path d="M4280 7015 c-170 -14 -284 -32 -406 -66 -43 -12 -92 -25 -109 -29
-16 -5 -57 -18 -90 -30 -33 -11 -69 -24 -80 -27 -11 -3 -29 -12 -40 -20 -11
-7 -25 -13 -33 -13 -15 0 -213 -96 -284 -137 -208 -123 -373 -249 -531 -406
-309 -306 -529 -667 -646 -1057 -18 -58 -36 -118 -41 -135 -32 -103 -79 -473
-80 -621 0 -85 32 -401 50 -494 29 -143 94 -355 149 -485 35 -82 137 -285 162
-323 16 -24 29 -45 29 -47 0 -11 108 -161 183 -255 378 -470 926 -799 1512
-906 353 -64 680 -57 1050 23 241 52 549 180 773 322 185 116 402 298 402 335
0 18 -38 59 -150 161 -176 160 -237 213 -255 223 -28 14 -66 -4 -140 -68 -70
-60 -264 -185 -347 -223 -32 -15 -82 -38 -110 -51 -29 -14 -98 -39 -153 -56
-264 -81 -328 -91 -596 -91 -216 0 -349 14 -444 47 -23 8 -48 14 -56 14 -29 0
-211 65 -309 111 -408 188 -726 498 -930 906 -84 169 -105 231 -177 523 -26
110 -27 550 0 660 10 41 25 104 34 140 36 152 114 355 169 442 13 21 24 40 24
44 0 9 89 141 151 225 76 100 193 224 288 303 140 117 324 233 464 292 176 75
240 94 506 149 101 21 449 21 557 0 160 -30 297 -64 364 -90 66 -25 195 -79
205 -85 6 -4 42 -24 80 -45 380 -204 695 -555 864 -960 56 -134 53 -127 106
-332 33 -133 48 -288 42 -460 -6 -207 -19 -285 -82 -498 -55 -185 -54 -191 21
-230 21 -11 97 -52 169 -90 288 -156 278 -153 314 -95 16 27 58 147 105 300
15 49 36 151 63 305 24 142 24 577 0 720 -40 232 -47 260 -111 455 -175 534
-542 1006 -1031 1326 -49 33 -99 64 -110 70 -94 50 -217 113 -250 126 -206 86
-418 150 -580 177 -83 14 -401 41 -465 39 -25 0 -115 -6 -200 -13z"/>
</g>
</svg>
