<?xml version="1.0" standalone="no"?>
<!DOCTYPE svg PUBLIC "-//W3C//DTD SVG 20010904//EN"
 "http://www.w3.org/TR/2001/REC-SVG-20010904/DTD/svg10.dtd">
<svg version="1.0" xmlns="http://www.w3.org/2000/svg"
 width="606.000000pt" height="606.000000pt" viewBox="0 0 606.000000 606.000000"
 preserveAspectRatio="xMidYMid meet">
<metadata>
Created by potrace 1.10, written by Peter Selinger 2001-2011
</metadata>
<g transform="translate(0.000000,606.000000) scale(0.100000,-0.100000)"
fill="#5c3ee8" stroke="none">
<path d="M4100 6044 c0 -11 9 -14 37 -12 52 4 56 28 4 28 -30 0 -41 -4 -41
-16z"/>
<path d="M4310 6017 c-15 -8 -43 -16 -63 -20 -20 -3 -73 -24 -117 -46 -77 -38
-92 -48 -128 -82 -9 -9 -26 -21 -38 -27 -54 -28 -204 -258 -204 -313 0 -10 -4
-20 -9 -23 -5 -4 -12 -25 -16 -49 -3 -23 -13 -74 -21 -113 -12 -57 -13 -82 -4
-125 6 -30 15 -78 20 -108 5 -29 13 -58 19 -64 6 -6 11 -20 11 -30 0 -22 40
-110 53 -115 4 -2 7 -12 7 -23 0 -20 128 -178 146 -178 6 -1 19 -10 29 -21 10
-11 22 -20 27 -20 4 0 16 -7 26 -16 28 -25 92 -64 105 -64 7 0 25 -7 41 -15
16 -8 47 -18 70 -22 22 -3 51 -13 64 -21 19 -12 47 -14 160 -8 123 6 204 21
247 48 6 3 25 9 43 13 17 3 32 10 32 14 0 4 17 15 38 24 20 9 59 35 86 57 26
22 52 40 56 40 21 0 160 195 160 224 0 8 6 19 14 25 7 6 17 30 20 53 4 23 12
48 18 55 10 13 30 145 30 203 0 55 -20 190 -29 202 -6 7 -13 29 -17 50 -6 33
-54 134 -77 162 -5 6 -34 43 -65 81 -31 39 -64 74 -73 79 -9 5 -21 14 -26 21
-19 23 -162 105 -184 105 -11 0 -21 5 -21 10 0 6 -7 10 -15 10 -9 0 -41 9 -72
20 -46 16 -83 20 -188 20 -89 0 -138 -4 -155 -13z"/>
<path d="M4010 5974 c0 -9 5 -14 12 -12 18 6 21 28 4 28 -9 0 -16 -7 -16 -16z"/>
<path d="M4910 5950 c0 -5 12 -10 28 -10 21 0 24 2 12 10 -20 13 -40 13 -40 0z"/>
<path d="M3870 5854 c0 -9 5 -14 12 -12 18 6 21 28 4 28 -9 0 -16 -7 -16 -16z"/>
<path d="M5060 5825 c0 -8 7 -15 15 -15 8 0 15 7 15 15 0 8 -7 15 -15 15 -8 0
-15 -7 -15 -15z"/>
<path d="M3810 5794 c0 -9 5 -14 12 -12 18 6 21 28 4 28 -9 0 -16 -7 -16 -16z"/>
<path d="M5152 5801 c2 -7 7 -12 11 -12 12 1 9 15 -3 20 -7 2 -11 -2 -8 -8z"/>
<path d="M3770 5740 c0 -11 5 -20 10 -20 6 0 10 9 10 20 0 11 -4 20 -10 20 -5
0 -10 -9 -10 -20z"/>
<path d="M5190 5741 c0 -11 5 -23 10 -26 6 -4 10 5 10 19 0 14 -4 26 -10 26
-5 0 -10 -9 -10 -19z"/>
<path d="M3770 4816 c0 -8 5 -18 10 -21 6 -3 10 1 10 9 0 8 -4 18 -10 21 -5 3
-10 -1 -10 -9z"/>
<path d="M3870 4686 c0 -10 9 -16 21 -16 24 0 21 23 -4 28 -10 2 -17 -3 -17
-12z"/>
<path d="M5057 4693 c-12 -11 -8 -23 8 -23 8 0 15 7 15 15 0 16 -12 20 -23 8z"/>
<path d="M4910 4590 c0 -5 6 -10 14 -10 8 0 18 5 21 10 3 6 -3 10 -14 10 -12
0 -21 -4 -21 -10z"/>
<path d="M4065 4540 c-4 -6 6 -10 22 -10 22 0 25 2 13 10 -19 12 -27 12 -35 0z"/>
<path d="M1000 1540 c0 -5 9 -10 20 -10 11 0 20 5 20 10 0 6 -9 10 -20 10 -11
0 -20 -4 -20 -10z"/>
<path d="M1385 1520 c-74 -9 -145 -27 -210 -55 -52 -22 -162 -96 -197 -132
-64 -66 -117 -129 -118 -140 0 -6 -6 -18 -13 -25 -21 -22 -75 -141 -83 -183
-3 -22 -11 -46 -17 -53 -16 -20 -16 -334 1 -339 6 -3 12 -16 12 -29 0 -25 25
-90 57 -149 9 -16 21 -39 27 -50 6 -11 17 -24 24 -28 6 -4 12 -14 12 -20 0
-11 71 -88 135 -147 30 -28 214 -119 255 -126 19 -4 41 -11 48 -17 21 -17 301
-17 334 -1 15 8 35 14 45 14 24 0 123 42 123 52 0 4 7 8 16 8 30 0 104 52 184
130 44 43 80 85 80 94 0 9 4 16 8 16 5 0 19 20 31 45 12 24 26 47 32 50 5 4 9
15 9 26 0 10 9 36 20 56 11 21 20 45 20 53 0 9 6 22 12 28 16 16 16 272 0 322
-6 19 -21 68 -33 108 -13 39 -26 72 -30 72 -4 0 -12 12 -18 28 -22 55 -79 132
-145 196 -50 48 -128 106 -142 106 -6 0 -67 26 -114 50 -9 4 -31 11 -50 15
-19 4 -39 11 -45 15 -16 12 -193 19 -270 10z"/>
<path d="M4375 1523 c-22 -2 -44 -9 -49 -14 -6 -5 -19 -9 -30 -9 -12 0 -34 -7
-50 -15 -15 -8 -35 -15 -42 -15 -41 0 -158 -75 -243 -156 -74 -70 -98 -101
-131 -166 -22 -44 -40 -86 -40 -93 0 -7 -7 -26 -15 -41 -8 -16 -15 -38 -15
-49 0 -12 -5 -26 -11 -32 -7 -7 -11 -64 -12 -154 0 -140 5 -179 38 -254 8 -16
17 -40 20 -53 4 -13 30 -62 57 -108 98 -163 244 -268 468 -335 59 -18 324 -19
341 -2 7 7 24 13 37 13 13 0 72 24 131 52 93 46 117 64 197 145 50 50 101 110
112 132 12 22 26 48 31 58 25 45 51 114 51 137 0 13 4 26 9 28 14 5 19 332 5
349 -6 8 -15 31 -18 53 -4 21 -11 46 -16 55 -5 9 -23 45 -41 81 -83 168 -269
322 -435 360 -27 6 -58 16 -69 23 -20 11 -207 18 -280 10z"/>
<path d="M1120 1510 c0 -5 9 -10 20 -10 11 0 20 5 20 10 0 6 -9 10 -20 10 -11
0 -20 -4 -20 -10z"/>
<path d="M945 1499 c-4 -6 -5 -13 -2 -16 7 -7 27 6 27 18 0 12 -17 12 -25 -2z"/>
<path d="M4850 1506 c0 -8 51 -13 56 -5 3 5 -9 9 -25 9 -17 0 -31 -2 -31 -4z"/>
<path d="M1040 1475 c-7 -8 -17 -15 -23 -15 -5 0 -20 -11 -33 -25 -33 -36 -12
-31 49 11 65 45 64 44 40 44 -11 0 -26 -7 -33 -15z"/>
<path d="M5050 1383 c0 -4 8 -17 16 -28 15 -20 16 -20 12 4 -3 22 -28 44 -28
24z"/>
<path d="M3895 1359 c-4 -11 -4 -23 -1 -26 8 -9 36 17 36 33 0 22 -28 16 -35
-7z"/>
<path d="M5155 1250 c-7 -12 2 -30 16 -30 12 0 12 27 0 35 -5 3 -12 1 -16 -5z"/>
<path d="M5120 225 c0 -8 5 -15 10 -15 6 0 10 7 10 15 0 8 -4 15 -10 15 -5 0
-10 -7 -10 -15z"/>
<path d="M2025 159 c-4 -6 -4 -13 -1 -16 8 -8 36 5 36 17 0 13 -27 13 -35 -1z"/>
</g>
</svg>
