<?xml version="1.0" standalone="no"?>
<!DOCTYPE svg PUBLIC "-//W3C//DTD SVG 20010904//EN"
 "http://www.w3.org/TR/2001/REC-SVG-20010904/DTD/svg10.dtd">
<svg version="1.0" xmlns="http://www.w3.org/2000/svg"
 width="666.000000pt" height="666.000000pt" viewBox="0 0 666.000000 666.000000"
 preserveAspectRatio="xMidYMid meet">
<metadata>
Created by potrace 1.10, written by Peter Selinger 2001-2011
</metadata>
<g transform="translate(0.000000,666.000000) scale(0.100000,-0.100000)"
fill="#e0115f" stroke="none">
<path d="M2183 5688 c-9 -13 -25 -47 -91 -188 -16 -36 -46 -99 -65 -140 -19
-41 -49 -105 -66 -142 -31 -68 -60 -131 -120 -260 -17 -38 -45 -98 -62 -135
-17 -38 -46 -99 -64 -138 -18 -38 -47 -101 -65 -140 -18 -38 -49 -106 -70
-150 -21 -44 -50 -107 -65 -140 -15 -33 -40 -87 -55 -120 -15 -33 -39 -85 -53
-115 -14 -30 -45 -98 -70 -150 -24 -52 -59 -126 -77 -165 -40 -88 -69 -150
-113 -245 -19 -41 -48 -104 -65 -140 -159 -346 -169 -368 -262 -565 -23 -49
-52 -112 -65 -140 -41 -88 -96 -208 -122 -265 -14 -30 -50 -106 -79 -168 -30
-62 -54 -114 -54 -117 0 -4 -43 -97 -120 -260 -21 -44 -50 -107 -65 -140 -15
-33 -40 -87 -55 -120 -90 -193 -150 -322 -201 -435 -22 -47 -44 -93 -49 -102
-6 -10 -10 -31 -10 -48 l0 -30 328 0 c180 0 332 4 339 8 7 4 22 30 34 57 12
28 39 87 60 133 22 46 39 85 39 88 0 2 13 32 29 66 56 121 91 199 91 204 0 2
14 33 30 69 17 36 44 94 60 130 17 36 30 67 30 70 0 3 20 48 45 101 25 52 45
97 45 100 0 2 20 46 44 97 24 50 55 117 69 147 13 30 41 90 61 133 20 42 36
79 36 82 0 2 18 43 41 92 22 48 50 108 61 133 11 25 33 72 48 105 15 33 37 80
48 105 11 25 39 85 61 133 23 49 41 90 41 92 0 2 18 43 41 92 22 48 49 106 59
128 10 22 30 67 45 100 15 33 35 78 45 100 26 59 67 148 94 208 13 28 48 104
76 167 28 63 63 139 76 168 13 28 36 78 50 110 62 137 69 146 84 107 5 -14 22
-52 36 -83 33 -71 49 -108 114 -252 102 -226 158 -349 229 -503 23 -49 41 -90
41 -92 0 -2 18 -43 41 -92 46 -98 77 -166 115 -250 14 -32 39 -85 54 -118 15
-33 39 -85 53 -115 44 -97 88 -193 132 -285 23 -49 55 -117 70 -150 95 -208
221 -450 266 -510 55 -74 230 -252 314 -320 92 -75 299 -218 345 -238 8 -4 31
-17 50 -28 19 -12 67 -37 105 -56 39 -19 78 -38 87 -43 25 -14 112 -45 268
-94 219 -70 565 -107 811 -87 216 17 442 66 609 131 30 12 66 25 80 30 29 9
137 62 231 113 52 28 176 110 219 144 77 61 106 87 113 100 6 10 -1 36 -18 76
-27 61 -92 202 -120 262 -8 17 -26 57 -40 90 -15 33 -35 78 -46 101 -10 22
-19 45 -19 52 0 29 -26 17 -102 -51 -110 -97 -187 -155 -278 -209 -106 -62
-197 -99 -365 -149 -155 -45 -542 -64 -713 -35 -236 41 -356 79 -542 171 -96
47 -101 51 -187 108 -133 89 -287 251 -353 373 -11 21 -25 46 -30 54 -9 14
-81 165 -150 315 -18 39 -50 108 -72 155 -94 198 -117 248 -142 303 -53 115
-110 240 -176 382 -18 39 -43 93 -55 120 -13 28 -42 90 -64 138 -23 49 -41 90
-41 92 0 1 -24 54 -54 116 -29 63 -65 139 -79 169 -14 30 -41 89 -60 130 -19
41 -49 107 -67 145 -18 39 -47 103 -66 143 -19 39 -49 105 -68 145 -19 39 -48
104 -66 142 -75 163 -127 276 -205 440 -18 39 -49 104 -68 145 -132 287 -148
320 -152 320 -1 0 -7 -6 -12 -12z"/>
<path d="M4965 5600 c-102 -8 -253 -33 -335 -54 -116 -30 -231 -64 -280 -84
-14 -6 -50 -20 -80 -32 -434 -173 -827 -497 -1098 -903 -18 -26 -32 -50 -32
-52 0 -2 -13 -23 -29 -47 -53 -80 -54 -71 40 -244 17 -32 49 -90 69 -129 21
-38 59 -110 86 -160 26 -49 65 -121 85 -160 21 -38 57 -107 80 -153 47 -94 68
-103 82 -37 44 212 138 449 219 556 16 20 28 40 28 44 0 13 119 162 181 226
99 101 165 156 275 229 132 88 282 161 389 189 17 5 41 13 55 19 75 30 339 72
458 72 83 0 310 -27 392 -46 143 -34 294 -91 372 -140 20 -13 40 -24 42 -24 3
0 35 -21 73 -46 78 -53 164 -125 242 -202 30 -29 59 -51 65 -49 11 4 24 28 52
92 7 17 28 64 47 105 20 41 58 127 87 190 28 63 60 132 71 153 10 21 19 45 19
53 0 9 9 18 20 21 16 4 20 14 20 49 0 24 -5 44 -10 44 -9 0 -53 33 -155 113
-69 55 -150 106 -245 155 -126 65 -276 132 -296 132 -8 0 -28 6 -46 14 -18 8
-58 21 -88 29 -206 58 -334 76 -565 81 -110 2 -240 1 -290 -4z"/>
</g>
</svg>
