<?xml version="1.0" standalone="no"?>
<!DOCTYPE svg PUBLIC "-//W3C//DTD SVG 20010904//EN"
 "http://www.w3.org/TR/2001/REC-SVG-20010904/DTD/svg10.dtd">
<svg version="1.0" xmlns="http://www.w3.org/2000/svg"
 width="300.000000pt" height="300.000000pt" viewBox="0 0 300.000000 300.000000"
 preserveAspectRatio="xMidYMid meet">
<metadata>
Created by potrace 1.10, written by Peter Selinger 2001-2011
</metadata>
<g transform="translate(0.000000,300.000000) scale(0.050000,-0.050000)"
fill="#e0115f" stroke="none">
<path d="M2531 5750 c-731 -190 -1272 -838 -1325 -1585 l-11 -165 272 0 273 0
3 65 c34 888 978 1459 1782 1080 401 -189 672 -572 709 -1000 l12 -145 279 0
279 0 -12 75 c-6 41 -17 129 -24 195 -111 1028 -1202 1750 -2237 1480z"/>
<path d="M2930 4739 c-820 -69 -909 -1226 -110 -1431 687 -176 1186 663 715
1203 -141 161 -371 248 -605 228z"/>
<path d="M852 3554 c-1536 -928 -859 -3313 940 -3314 374 0 933 164 980 288 8
20 -202 427 -240 467 -3 2 -76 -31 -163 -75 -1458 -733 -2593 1397 -1174 2202
105 60 108 36 -39 298 -142 252 -123 243 -304 134z"/>
<path d="M4823 3409 c-70 -128 -124 -234 -120 -237 4 -3 64 -40 135 -82 736
-440 812 -1483 148 -2031 -383 -317 -914 -371 -1372 -141 l-156 79 -45 -74
c-245 -393 -245 -394 -33 -502 606 -309 1428 -221 1945 208 939 779 863 2223
-152 2894 -225 148 -201 156 -350 -114z"/>
<path d="M2880 2862 l-90 -54 -6 -129 -5 -129 105 -63 105 -63 100 58 101 57
6 130 6 130 -96 60 c-115 72 -113 72 -226 3z"/>
<path d="M1591 2724 c-373 -96 -615 -522 -507 -892 246 -838 1477 -636 1433
236 -23 459 -467 774 -926 656z"/>
<path d="M4000 2727 c-644 -167 -727 -1085 -124 -1363 288 -132 661 -62 854
160 483 554 -22 1386 -730 1203z"/>
</g>
</svg>
