<?xml version="1.0" standalone="no"?>
<!DOCTYPE svg PUBLIC "-//W3C//DTD SVG 20010904//EN"
 "http://www.w3.org/TR/2001/REC-SVG-20010904/DTD/svg10.dtd">
<svg version="1.0" xmlns="http://www.w3.org/2000/svg"
 width="831.000000pt" height="831.000000pt" viewBox="0 0 831.000000 831.000000"
 preserveAspectRatio="xMidYMid meet">
<metadata>
Created by potrace 1.10, written by Peter Selinger 2001-2011
</metadata>
<g transform="translate(0.000000,831.000000) scale(0.100000,-0.100000)"
fill="#e9185f" stroke="none">
<path d="M3895 8250 c-16 -5 -59 -15 -95 -23 -76 -18 -189 -56 -204 -69 -6 -5
-36 -22 -66 -38 -30 -16 -75 -39 -100 -52 -25 -13 -48 -27 -51 -31 -6 -8 -37
-26 -159 -89 -25 -13 -48 -27 -51 -31 -3 -5 -28 -19 -55 -32 -27 -14 -58 -30
-69 -37 -11 -7 -39 -25 -63 -40 -24 -16 -47 -28 -53 -28 -5 0 -28 -12 -52 -27
-46 -30 -53 -34 -142 -83 -33 -17 -66 -37 -73 -42 -13 -11 -42 -28 -119 -68
-26 -14 -52 -31 -56 -37 -4 -7 -17 -13 -28 -13 -11 0 -25 -5 -32 -10 -49 -42
-62 -50 -79 -50 -10 0 -18 -4 -18 -8 0 -5 -34 -26 -75 -47 -41 -22 -75 -43
-75 -47 0 -3 -10 -10 -22 -14 -13 -3 -42 -19 -66 -35 -24 -16 -47 -29 -53 -29
-10 0 -60 -29 -69 -41 -3 -3 -18 -12 -35 -21 -62 -31 -125 -66 -152 -85 -15
-11 -41 -27 -58 -35 -63 -31 -125 -67 -153 -87 -16 -11 -40 -25 -53 -31 -13
-5 -51 -26 -84 -45 -33 -19 -67 -38 -75 -42 -8 -4 -58 -33 -111 -65 -53 -32
-100 -58 -103 -58 -4 0 -19 -8 -34 -19 -15 -10 -76 -47 -137 -82 -82 -47 -135
-87 -207 -157 -53 -51 -109 -112 -125 -135 -15 -23 -34 -48 -41 -55 -7 -8 -20
-28 -29 -45 -9 -18 -19 -34 -23 -37 -8 -6 -100 -193 -100 -204 0 -4 -6 -22
-14 -39 -29 -69 -44 -114 -54 -167 -15 -77 -15 -3273 0 -3350 10 -53 25 -98
54 -167 8 -17 14 -35 14 -39 0 -10 91 -198 100 -204 3 -3 17 -23 30 -45 13
-22 26 -42 30 -45 3 -3 18 -24 33 -47 16 -23 72 -84 125 -135 72 -70 125 -110
207 -157 61 -35 122 -72 137 -82 15 -11 30 -19 34 -19 7 0 126 -70 134 -79 3
-3 25 -16 50 -29 80 -41 133 -72 150 -87 9 -8 24 -15 33 -15 8 0 22 -6 29 -13
7 -7 20 -16 28 -20 8 -4 38 -21 65 -37 28 -17 66 -37 85 -46 19 -9 37 -20 40
-24 5 -7 104 -63 175 -98 17 -9 32 -19 35 -22 5 -7 108 -65 175 -98 17 -9 32
-19 35 -22 3 -4 37 -24 75 -45 39 -20 72 -41 73 -46 2 -5 12 -9 21 -9 16 0 29
-8 78 -50 7 -5 21 -10 32 -10 11 0 24 -6 28 -13 4 -6 30 -23 56 -37 77 -40
106 -57 119 -68 7 -5 40 -25 73 -42 89 -49 96 -53 142 -83 24 -15 47 -27 52
-27 6 0 29 -12 53 -27 24 -16 52 -34 63 -41 11 -7 40 -23 65 -35 25 -13 63
-34 85 -47 23 -14 50 -30 60 -37 11 -7 39 -22 63 -34 23 -11 48 -26 55 -33 7
-6 32 -21 57 -34 111 -58 148 -78 161 -88 19 -15 130 -53 204 -69 33 -8 78
-19 100 -24 52 -14 448 -14 500 0 22 5 67 16 100 24 71 16 188 55 195 65 3 4
30 19 60 34 57 28 69 35 135 76 22 14 60 36 85 48 45 22 53 27 125 72 22 14
60 36 85 48 25 12 54 28 65 35 53 33 103 63 135 80 46 24 86 47 135 76 22 14
56 33 75 43 54 28 93 52 108 66 7 6 22 12 33 12 10 0 19 4 19 10 0 5 11 12 24
16 14 3 27 12 30 20 3 8 15 14 26 14 12 0 26 5 33 10 49 42 62 50 79 50 10 0
18 4 18 8 0 5 34 26 75 47 41 22 75 43 75 47 0 3 10 10 23 14 12 3 40 18 62
33 22 14 59 35 83 45 23 11 42 22 42 27 0 4 12 12 28 18 33 13 121 62 159 89
15 10 42 26 58 34 60 30 124 66 152 85 15 11 42 27 58 35 63 32 125 67 153 87
17 11 33 21 37 21 4 0 44 23 90 50 46 28 86 50 89 50 4 0 19 8 34 19 15 10 77
47 137 82 92 53 129 82 228 180 64 65 117 125 117 133 0 8 6 19 13 23 7 4 24
26 37 48 13 22 27 42 30 45 9 8 50 89 50 101 0 5 11 27 25 49 14 22 25 45 25
51 0 6 6 25 14 42 34 81 39 94 42 122 2 17 7 44 11 60 11 49 15 3266 3 3295
-5 14 -12 45 -14 70 -2 25 -9 59 -16 75 -7 17 -19 44 -26 62 -8 17 -14 34 -14
38 0 12 -93 200 -102 206 -5 3 -18 23 -30 45 -11 21 -23 41 -27 44 -3 3 -17
22 -31 42 -52 78 -222 232 -322 291 -53 31 -100 57 -104 57 -4 0 -22 11 -40
25 -18 14 -36 25 -40 25 -3 0 -40 20 -81 45 -40 25 -77 45 -81 45 -4 0 -25 12
-47 27 -39 26 -97 60 -160 91 -16 8 -43 24 -58 35 -28 19 -92 55 -152 85 -16
8 -43 24 -58 35 -27 19 -90 54 -152 85 -16 9 -32 18 -35 21 -9 12 -59 41 -69
41 -6 0 -29 13 -53 29 -24 16 -53 32 -65 35 -13 4 -23 11 -23 14 0 4 -34 25
-75 47 -41 21 -75 42 -75 47 0 4 -11 8 -25 8 -13 0 -28 6 -32 13 -11 18 -59
47 -78 47 -9 0 -18 6 -21 14 -3 8 -16 17 -30 20 -13 4 -24 11 -24 16 0 6 -8
10 -18 10 -11 0 -29 9 -42 20 -13 11 -28 20 -33 20 -6 0 -18 6 -26 14 -15 13
-101 62 -166 94 -16 8 -37 21 -45 27 -8 7 -40 26 -70 43 -30 16 -71 39 -90 50
-19 12 -55 32 -80 44 -25 12 -63 34 -85 48 -62 39 -77 47 -125 72 -25 12 -63
34 -85 48 -65 41 -77 48 -135 76 -30 15 -57 30 -60 34 -7 10 -124 49 -195 65
-33 8 -78 19 -100 24 -47 12 -456 13 -500 1z m840 -1444 c60 -4 114 -11 120
-15 5 -5 24 -9 40 -10 58 -2 100 -9 128 -20 16 -6 37 -11 49 -11 11 0 34 -6
51 -14 18 -7 105 -37 195 -66 89 -29 165 -57 168 -61 3 -5 15 -9 27 -10 12 0
72 -26 132 -57 109 -56 110 -57 109 -92 -1 -19 -7 -51 -14 -70 -7 -19 -15 -39
-16 -45 -2 -5 -8 -17 -13 -25 -5 -8 -19 -48 -31 -88 -12 -40 -26 -75 -31 -78
-5 -3 -9 -15 -9 -27 0 -12 -7 -35 -15 -51 -8 -15 -15 -36 -15 -46 0 -10 -7
-23 -15 -30 -8 -7 -15 -22 -15 -34 0 -11 -7 -34 -15 -50 -8 -15 -15 -36 -15
-45 0 -9 -4 -21 -9 -26 -9 -10 -63 -157 -83 -228 -18 -62 -43 -67 -131 -23
-40 20 -78 36 -84 36 -5 0 -36 13 -69 29 -67 33 -265 101 -294 101 -10 0 -21
4 -24 9 -3 5 -32 12 -63 16 -32 4 -64 12 -72 18 -20 17 -712 17 -732 1 -8 -6
-32 -15 -54 -19 -22 -4 -44 -10 -50 -15 -5 -4 -22 -10 -38 -14 -27 -7 -116
-57 -149 -86 -10 -8 -18 -20 -18 -27 0 -7 -3 -13 -8 -13 -10 0 -37 -54 -52
-103 -13 -42 -21 -227 -10 -242 4 -5 13 -28 20 -50 14 -44 131 -172 190 -208
19 -11 37 -24 40 -27 3 -3 50 -27 105 -54 55 -26 113 -53 128 -61 16 -8 33
-15 39 -15 5 0 24 -6 41 -13 28 -12 118 -46 227 -86 19 -7 47 -16 62 -18 15
-3 33 -11 39 -19 6 -8 21 -14 33 -14 12 0 31 -7 42 -15 10 -8 27 -15 37 -15
20 0 48 -11 153 -61 34 -16 67 -29 74 -29 6 0 24 -6 38 -14 57 -30 219 -106
228 -106 18 -1 94 -42 179 -98 11 -7 33 -18 48 -25 15 -8 40 -23 55 -35 15
-13 63 -49 107 -81 141 -104 276 -261 354 -411 19 -36 40 -76 48 -90 7 -14 13
-32 13 -41 0 -9 7 -30 15 -45 8 -16 15 -38 15 -49 0 -12 4 -25 10 -31 5 -5 13
-39 16 -74 4 -36 12 -71 18 -79 17 -21 15 -676 -1 -692 -7 -7 -13 -29 -13 -49
0 -47 -58 -215 -111 -320 -51 -100 -213 -318 -248 -332 -9 -3 -34 -24 -56 -47
-21 -23 -45 -41 -52 -41 -7 0 -13 -4 -13 -9 0 -15 -84 -68 -217 -136 -43 -21
-85 -44 -93 -51 -8 -6 -26 -14 -40 -17 -34 -7 -89 -27 -122 -43 -14 -8 -36
-14 -48 -14 -12 0 -31 -5 -42 -11 -42 -23 -229 -60 -433 -86 -182 -23 -793
-24 -980 0 -181 22 -414 63 -485 85 -19 5 -62 18 -95 27 -33 9 -73 21 -90 27
-16 5 -48 14 -70 19 -22 6 -44 14 -49 20 -6 5 -19 9 -29 9 -10 0 -31 6 -45 14
-59 31 -159 76 -173 76 -8 1 -32 12 -54 25 -22 14 -52 30 -66 36 -38 15 -53
53 -38 98 6 20 15 40 20 46 5 5 9 18 9 30 0 11 7 33 15 49 8 15 15 35 15 43 0
8 6 29 14 46 36 86 55 136 76 212 4 17 18 55 30 85 11 30 38 107 60 172 21 64
43 124 49 135 5 10 12 26 15 36 8 26 35 21 127 -24 124 -60 141 -68 172 -75
15 -3 30 -10 33 -15 3 -5 13 -9 22 -9 9 0 30 -7 46 -15 15 -8 35 -15 43 -15 8
0 29 -6 46 -14 18 -7 61 -21 97 -30 36 -10 88 -24 116 -32 28 -8 65 -14 82
-14 17 0 34 -4 37 -10 3 -5 19 -7 35 -3 17 3 36 0 44 -6 9 -8 90 -14 232 -18
121 -3 225 -10 232 -16 8 -6 26 -6 55 1 23 6 96 13 162 16 66 3 136 11 155 17
19 6 51 15 70 19 96 23 185 73 256 145 70 70 94 147 94 294 0 168 -53 273
-193 386 -48 39 -371 205 -398 205 -9 0 -22 7 -29 15 -7 8 -22 15 -34 15 -11
0 -30 7 -40 15 -11 8 -29 15 -40 15 -12 0 -32 6 -46 13 -30 16 -83 36 -125 47
-16 5 -55 18 -85 30 -30 12 -71 26 -90 32 -19 5 -57 20 -85 33 -27 12 -78 33
-113 45 -34 12 -65 27 -68 31 -3 5 -16 9 -29 9 -13 0 -26 4 -29 8 -3 5 -67 40
-143 77 -76 38 -154 80 -173 94 -19 14 -42 31 -51 36 -129 81 -272 216 -370
350 -52 72 -61 86 -91 145 -12 25 -32 61 -44 80 -11 19 -31 69 -43 110 -12 41
-29 95 -38 120 -12 34 -17 102 -20 270 -7 329 8 426 100 660 16 41 37 89 47
105 11 17 25 42 32 55 33 61 80 130 89 130 5 0 9 6 9 13 0 10 103 130 137 159
4 4 30 28 58 53 27 25 55 45 62 45 7 0 13 4 13 9 0 9 126 96 156 108 11 4 37
19 58 35 21 15 45 28 53 28 7 0 21 4 31 9 55 29 104 51 116 51 8 0 27 7 42 15
16 8 36 15 45 15 9 0 30 7 45 15 16 8 40 15 54 15 15 0 31 5 37 11 6 6 39 13
74 16 35 3 69 10 75 15 7 5 52 11 100 14 49 3 98 9 109 15 29 14 635 17 660 3
11 -6 69 -14 130 -18z"/>
</g>
</svg>
